<svg version="1.1" xmlns="http://www.w3.org/2000/svg" viewBox="0 0 989.9848649766718 950.2021077473983" width="989.9848649766718" height="950.2021077473983" filter="invert(93%) hue-rotate(180deg)">
  <!-- svg-source:excalidraw -->
  
  <defs>
    <style class="style-fonts">
      @font-face {
        font-family: "Virgil";
        src: url("https://excalidraw.com/Virgil.woff2");
      }
      @font-face {
        font-family: "Cascadia";
        src: url("https://excalidraw.com/Cascadia.woff2");
      }
      @font-face {
        font-family: "Assistant";
        src: url("https://excalidraw.com/Assistant-Regular.woff2");
      }
    </style>
    
  </defs>
  <g stroke-linecap="round" transform="translate(95.31819831000394 120.20210774739644) rotate(0 442.33333333333394 410.0000000000009)"><path d="M-0.26 0.1 C288.15 5.3, 573.51 4.35, 884.35 -0.6 M0.71 -0.03 C346.49 -2.41, 693.39 -2.62, 885.42 -0.05 M883.25 0.28 C881.26 206.88, 879.11 413.7, 885.26 819.39 M884.93 -0.65 C889.59 198.99, 888.84 397.5, 884.73 820.75 M885 819.26 C668.99 826.84, 451.19 826.65, -1.48 819.32 M884.76 819.23 C673.89 816.69, 462.23 815.71, -0.54 820.42 M0.48 820.66 C0.73 492.86, 2.17 163.35, 1.28 -0.3 M0.59 820.74 C4.67 608.81, 3.91 396.22, -0.4 -0.41" stroke="#e03131" stroke-width="1" fill="none"></path></g><g transform="translate(447.9604187011719 66.73131440577072) rotate(0 66.55792236328125 9.232416641025793)"><text x="0" y="0" font-family="Virgil, Segoe UI Emoji" font-size="15.387361068376558px" fill="#000000" text-anchor="start" style="white-space: pre;" direction="ltr" dominant-baseline="text-before-edge">Internet gateway</text></g><g stroke-linecap="round" transform="translate(490.66034566591725 10) rotate(0 24.235093682693105 24.235093682692877)"><path d="M48.47 24.24 C48.47 25.64, 48.35 27.06, 48.1 28.44 C47.86 29.82, 47.49 31.21, 47.01 32.52 C46.53 33.84, 45.92 35.14, 45.22 36.35 C44.52 37.57, 43.7 38.74, 42.8 39.81 C41.9 40.89, 40.89 41.9, 39.81 42.8 C38.74 43.7, 37.57 44.52, 36.35 45.22 C35.14 45.92, 33.84 46.53, 32.52 47.01 C31.21 47.49, 29.82 47.86, 28.44 48.1 C27.06 48.35, 25.64 48.47, 24.24 48.47 C22.83 48.47, 21.41 48.35, 20.03 48.1 C18.65 47.86, 17.26 47.49, 15.95 47.01 C14.63 46.53, 13.33 45.92, 12.12 45.22 C10.9 44.52, 9.73 43.7, 8.66 42.8 C7.58 41.9, 6.57 40.89, 5.67 39.81 C4.77 38.74, 3.95 37.57, 3.25 36.35 C2.55 35.14, 1.94 33.84, 1.46 32.52 C0.98 31.21, 0.61 29.82, 0.37 28.44 C0.12 27.06, 0 25.64, 0 24.24 C0 22.83, 0.12 21.41, 0.37 20.03 C0.61 18.65, 0.98 17.26, 1.46 15.95 C1.94 14.63, 2.55 13.33, 3.25 12.12 C3.95 10.9, 4.77 9.73, 5.67 8.66 C6.57 7.58, 7.58 6.57, 8.66 5.67 C9.73 4.77, 10.9 3.95, 12.12 3.25 C13.33 2.55, 14.63 1.94, 15.95 1.46 C17.26 0.98, 18.65 0.61, 20.03 0.37 C21.41 0.12, 22.83 0, 24.24 0 C25.64 0, 27.06 0.12, 28.44 0.37 C29.82 0.61, 31.21 0.98, 32.52 1.46 C33.84 1.94, 35.14 2.55, 36.35 3.25 C37.57 3.95, 38.74 4.77, 39.81 5.67 C40.89 6.57, 41.9 7.58, 42.8 8.66 C43.7 9.73, 44.52 10.9, 45.22 12.12 C45.92 13.33, 46.53 14.63, 47.01 15.95 C47.49 17.26, 47.86 18.65, 48.1 20.03 C48.35 21.41, 48.41 23.53, 48.47 24.24 C48.53 24.94, 48.53 23.53, 48.47 24.24" stroke="#000000" stroke-width="2" fill="none"></path></g><g stroke-linecap="round"><g transform="translate(501.4826632495756 48.46889072234535) rotate(0 13.687422076436633 -14.136190013369287)"><path d="M0 0 C0.07 -4.19, -2.47 -20.34, 0.45 -25.13 C3.37 -29.92, 13.09 -28.87, 17.5 -28.72 C21.91 -28.57, 25.28 -29.1, 26.93 -24.23 C28.57 -19.37, 27.3 -3.66, 27.37 0.45 M0 0 C0.07 -4.19, -2.47 -20.34, 0.45 -25.13 C3.37 -29.92, 13.09 -28.87, 17.5 -28.72 C21.91 -28.57, 25.28 -29.1, 26.93 -24.23 C28.57 -19.37, 27.3 -3.66, 27.37 0.45" stroke="#7950f288" stroke-width="2" fill="none"></path></g></g><mask></mask><g stroke-linecap="round"><g transform="translate(504.4615848149333 48.29937255192999) rotate(0 10.69329849721612 -12.40791737476684)"><path d="M0 0 C0.06 -3.68, -1.93 -17.86, 0.35 -22.06 C2.63 -26.26, 10.23 -25.34, 13.67 -25.21 C17.12 -25.08, 19.75 -25.54, 21.04 -21.27 C22.32 -17, 21.33 -3.22, 21.39 0.39 M0 0 C0.06 -3.68, -1.93 -17.86, 0.35 -22.06 C2.63 -26.26, 10.23 -25.34, 13.67 -25.21 C17.12 -25.08, 19.75 -25.54, 21.04 -21.27 C22.32 -17, 21.33 -3.22, 21.39 0.39" stroke="#7950f288" stroke-width="2" fill="none"></path></g></g><mask></mask><g stroke-linecap="round"><g transform="translate(526.2995301619349 48.91765865927755) rotate(0 0.8975358738648538 0)"><path d="M0 0 C0.3 0, 1.5 0, 1.8 0 M0 0 C0.3 0, 1.5 0, 1.8 0" stroke="#7950f288" stroke-width="2" fill="none"></path></g></g><mask></mask><g stroke-linecap="round"><g transform="translate(502.46995271082596 48.19962996018603) rotate(0 0.8975358738648538 0)"><path d="M0 0 C0.3 0, 1.5 0, 1.8 0 M0 0 C0.3 0, 1.5 0, 1.8 0" stroke="#7950f288" stroke-width="2" fill="none"></path></g></g><mask></mask><g transform="translate(24.3204345703125 523.8235271004069) rotate(0 18.219985961914062 12)"><text x="18.219985961914062" y="0" font-family="Virgil, Segoe UI Emoji" font-size="20px" fill="#000000" text-anchor="middle" style="white-space: pre;" direction="ltr" dominant-baseline="text-before-edge">VPC</text></g><g stroke-linecap="round" transform="translate(10 453.91402172771814) rotate(0 32.54042053222656 32.54042053222656)"><path d="M0 0 C0 0, 0 0, 0 0 M0 0 C0 0, 0 0, 0 0 M0.13 12.04 C3.56 8.1, 6.98 4.16, 10.63 -0.03 M0.13 12.04 C2.88 8.88, 5.63 5.72, 10.63 -0.03 M0.27 24.08 C5.92 17.58, 11.57 11.07, 21.26 -0.07 M0.27 24.08 C6.68 16.71, 13.09 9.33, 21.26 -0.07 M-0.26 36.88 C12.27 22.47, 24.8 8.06, 31.89 -0.1 M-0.26 36.88 C11.18 23.72, 22.63 10.55, 31.89 -0.1 M-0.12 48.92 C10.71 36.45, 21.55 23.99, 42.52 -0.14 M-0.12 48.92 C15.11 31.4, 30.33 13.88, 42.52 -0.14 M0.01 60.96 C19.11 38.99, 38.2 17.02, 53.15 -0.17 M0.01 60.96 C21.01 36.8, 42 12.65, 53.15 -0.17 M6.7 65.45 C20.3 49.81, 33.89 34.17, 63.78 -0.21 M6.7 65.45 C23.35 46.3, 40 27.15, 63.78 -0.21 M17.33 65.42 C35.09 44.99, 52.86 24.55, 65.88 9.57 M17.33 65.42 C36.66 43.19, 55.98 20.96, 65.88 9.57 M27.96 65.38 C38.09 53.73, 48.22 42.08, 66.02 21.61 M27.96 65.38 C42.75 48.37, 57.54 31.36, 66.02 21.61 M38.59 65.35 C44.45 58.61, 50.31 51.87, 65.49 34.41 M38.59 65.35 C45.46 57.46, 52.32 49.56, 65.49 34.41 M49.22 65.31 C55.14 58.51, 61.06 51.7, 65.63 46.45 M49.22 65.31 C54.14 59.66, 59.05 54.01, 65.63 46.45 M59.85 65.28 C61.05 63.91, 62.24 62.54, 65.76 58.49 M59.85 65.28 C61.8 63.05, 63.74 60.81, 65.76 58.49 M0.23 65.28 C0.23 65.28, 0.23 65.28, 0.23 65.28 M0.23 65.28 C0.23 65.28, 0.23 65.28, 0.23 65.28 M12.27 65.15 C8.85 62.17, 5.43 59.2, 0.19 54.65 M12.27 65.15 C9.21 62.48, 6.14 59.82, 0.19 54.65 M24.31 65.01 C16.32 58.06, 8.32 51.12, 0.16 44.02 M24.31 65.01 C18.78 60.21, 13.25 55.4, 0.16 44.02 M36.35 64.88 C25.31 55.28, 14.26 45.68, 0.13 33.39 M36.35 64.88 C24.19 54.31, 12.03 43.74, 0.13 33.39 M49.15 65.4 C32.33 50.79, 15.52 36.17, 0.09 22.76 M49.15 65.4 C38.87 56.47, 28.58 47.53, 0.09 22.76 M61.19 65.27 C37.49 44.67, 13.8 24.07, 0.06 12.13 M61.19 65.27 C39.61 46.51, 18.03 27.75, 0.06 12.13 M64.93 57.92 C45.9 41.38, 26.86 24.83, 0.02 1.5 M64.93 57.92 C43.57 39.35, 22.21 20.79, 0.02 1.5 M65.65 47.95 C47.17 31.88, 28.68 15.81, 9.8 -0.6 M65.65 47.95 C45.79 30.69, 25.94 13.43, 9.8 -0.6 M65.61 37.32 C52.67 26.07, 39.73 14.82, 21.84 -0.74 M65.61 37.32 C52.56 25.97, 39.5 14.62, 21.84 -0.74 M65.58 26.69 C58.85 20.84, 52.13 14.99, 33.88 -0.87 M65.58 26.69 C57.18 19.38, 48.77 12.08, 33.88 -0.87 M65.54 16.06 C60.99 12.09, 56.43 8.13, 46.68 -0.35 M65.54 16.06 C58 9.5, 50.46 2.94, 46.68 -0.35 M65.51 5.43 C62.88 3.14, 60.25 0.86, 58.72 -0.48 M65.51 5.43 C63.64 3.8, 61.77 2.17, 58.72 -0.48" stroke="#7950f288" stroke-width="1" fill="none"></path><path d="M0 0 C21.92 0, 43.84 0, 65.08 0 M0 0 C14.9 0, 29.79 0, 65.08 0 M65.08 0 C65.08 25.19, 65.08 50.37, 65.08 65.08 M65.08 0 C65.08 25.54, 65.08 51.09, 65.08 65.08 M65.08 65.08 C51.42 65.08, 37.75 65.08, 0 65.08 M65.08 65.08 C39.62 65.08, 14.16 65.08, 0 65.08 M0 65.08 C0 44.46, 0 23.84, 0 0 M0 65.08 C0 41.3, 0 17.51, 0 0" stroke="#000000" stroke-width="2" fill="none"></path></g><g stroke-linecap="round"><g transform="translate(69.8085137571461 480.370859429735) rotate(0 -27.11790090254499 -2.787284343427018)"><path d="M0 0 C-0.41 -0.65, -1.26 -3.01, -2.46 -3.88 C-3.67 -4.75, -6.35 -4.84, -7.23 -5.22 C-8.12 -5.59, -7.52 -5.31, -7.77 -6.12 C-8.03 -6.93, -7.83 -9.1, -8.75 -10.06 C-9.66 -11.02, -11.81 -12.03, -13.25 -11.91 C-14.68 -11.78, -16.6 -9.67, -17.36 -9.31 C-18.12 -8.94, -16.68 -8.54, -17.8 -9.72 C-18.93 -10.91, -21.52 -14.81, -24.11 -16.42 C-26.71 -18.03, -30.37 -19.52, -33.37 -19.39 C-36.36 -19.25, -39.94 -17.82, -42.08 -15.62 C-44.22 -13.42, -45.41 -8.03, -46.21 -6.2 C-47 -4.37, -45.7 -5.57, -46.86 -4.64 C-48.01 -3.71, -51.92 -2.68, -53.15 -0.64 C-54.38 1.39, -54.92 5.24, -54.24 7.55 C-53.55 9.87, -50.93 12.2, -49.04 13.23 C-47.14 14.26, -45.16 13.64, -42.87 13.73 C-40.57 13.83, -37.39 13.82, -35.28 13.81 C-33.17 13.81, -31.04 13.72, -30.19 13.7 M0 0 C-0.41 -0.65, -1.26 -3.01, -2.46 -3.88 C-3.67 -4.75, -6.35 -4.84, -7.23 -5.22 C-8.12 -5.59, -7.52 -5.31, -7.77 -6.12 C-8.03 -6.93, -7.83 -9.1, -8.75 -10.06 C-9.66 -11.02, -11.81 -12.03, -13.25 -11.91 C-14.68 -11.78, -16.6 -9.67, -17.36 -9.31 C-18.12 -8.94, -16.68 -8.54, -17.8 -9.72 C-18.93 -10.91, -21.52 -14.81, -24.11 -16.42 C-26.71 -18.03, -30.37 -19.52, -33.37 -19.39 C-36.36 -19.25, -39.94 -17.82, -42.08 -15.62 C-44.22 -13.42, -45.41 -8.03, -46.21 -6.2 C-47 -4.37, -45.7 -5.57, -46.86 -4.64 C-48.01 -3.71, -51.92 -2.68, -53.15 -0.64 C-54.38 1.39, -54.92 5.24, -54.24 7.55 C-53.55 9.87, -50.93 12.2, -49.04 13.23 C-47.14 14.26, -45.16 13.64, -42.87 13.73 C-40.57 13.83, -37.39 13.82, -35.28 13.81 C-33.17 13.81, -31.04 13.72, -30.19 13.7" stroke="#000000" stroke-width="2" fill="none"></path></g></g><mask></mask><g stroke-linecap="round"><g transform="translate(44.91301296233814 483.55263626795386) rotate(0 12.415346000597538 -2.483069200119644)"><path d="M0 0 C3.33 -1.41, 6.66 -2.81, 11.76 -4.97 M0 0 C3.81 -1.61, 7.62 -3.22, 11.76 -4.97 M11.76 -4.97 C14.59 -3.89, 17.42 -2.82, 24.83 0 M11.76 -4.97 C16.1 -3.32, 20.43 -1.67, 24.83 0" stroke="#000000" stroke-width="2" fill="none"></path></g></g><mask></mask><g stroke-linecap="round"><g transform="translate(44.39026155178726 483.7010639755881) rotate(0 12.676721705873433 14.114288084889722)"><path d="M0 0 C0 2.4, -0.04 11.2, 0 14.38 C0.04 17.56, -0.17 17.64, 0.26 19.08 C0.7 20.52, 1.74 21.87, 2.61 23 C3.49 24.13, 4.49 25.18, 5.49 25.88 C6.49 26.57, 7.36 26.79, 8.63 27.18 C9.89 27.58, 11.67 28.19, 13.07 28.23 C14.46 28.27, 15.81 27.88, 16.99 27.44 C18.17 27.01, 19.08 26.57, 20.13 25.61 C21.17 24.66, 22.48 23.18, 23.26 21.69 C24.05 20.21, 24.53 18.03, 24.83 16.73 C25.14 15.42, 25 16.64, 25.09 13.85 C25.18 11.06, 25.31 2.31, 25.35 0 M0 0 C0 2.4, -0.04 11.2, 0 14.38 C0.04 17.56, -0.17 17.64, 0.26 19.08 C0.7 20.52, 1.74 21.87, 2.61 23 C3.49 24.13, 4.49 25.18, 5.49 25.88 C6.49 26.57, 7.36 26.79, 8.63 27.18 C9.89 27.58, 11.67 28.19, 13.07 28.23 C14.46 28.27, 15.81 27.88, 16.99 27.44 C18.17 27.01, 19.08 26.57, 20.13 25.61 C21.17 24.66, 22.48 23.18, 23.26 21.69 C24.05 20.21, 24.53 18.03, 24.83 16.73 C25.14 15.42, 25 16.64, 25.09 13.85 C25.18 11.06, 25.31 2.31, 25.35 0" stroke="#000000" stroke-width="2" fill="none"></path></g></g><mask></mask><g stroke-linecap="round"><g transform="translate(49.617775657301536 487.62169955472564) rotate(0 7.318519747720757 -1.568254231654464)"><path d="M0 0 C1.76 -0.73, 3.52 -1.46, 7.58 -3.14 M0 0 C2.29 -0.95, 4.57 -1.89, 7.58 -3.14 M7.58 -3.14 C9.58 -2.4, 11.58 -1.66, 14.64 -0.52 M7.58 -3.14 C10.26 -2.14, 12.95 -1.15, 14.64 -0.52" stroke="#000000" stroke-width="2" fill="none"></path></g></g><mask></mask><g stroke-linecap="round"><g transform="translate(57.19767111029796 506.963501745131) rotate(0 0 -11.23915532685669)"><path d="M0 0 C0 -6.79, 0 -13.58, 0 -22.48 M0 0 C0 -6.44, 0 -12.89, 0 -22.48" stroke="#000000" stroke-width="2" fill="none"></path></g></g><mask></mask><g stroke-linecap="round"><g transform="translate(56.93629540502252 506.963501745131) rotate(0 -3.528572021222544 -9.801588947840173)"><path d="M0 0 C-1.4 -0.37, -2.8 -0.75, -3.92 -1.05 M0 0 C-1.11 -0.3, -2.22 -0.59, -3.92 -1.05 M-3.92 -1.05 C-4.73 -1.93, -5.55 -2.81, -7.06 -4.44 M-3.92 -1.05 C-5.13 -2.36, -6.35 -3.67, -7.06 -4.44 M-7.06 -4.44 C-7.06 -8.89, -7.06 -13.34, -7.06 -19.6 M-7.06 -4.44 C-7.06 -9.88, -7.06 -15.32, -7.06 -19.6" stroke="#000000" stroke-width="2" fill="none"></path></g></g><mask></mask><g stroke-linecap="round"><g transform="translate(57.32835896293636 507.0941895977685) rotate(0 3.528572021222544 -9.801588947840173)"><path d="M0 0 C1.52 -0.4, 3.03 -0.81, 3.92 -1.05 M0 0 C1.54 -0.41, 3.08 -0.82, 3.92 -1.05 M3.92 -1.05 C4.58 -1.76, 5.24 -2.47, 7.06 -4.44 M3.92 -1.05 C5.15 -2.37, 6.37 -3.7, 7.06 -4.44 M7.06 -4.44 C7.06 -9.25, 7.06 -14.05, 7.06 -19.6 M7.06 -4.44 C7.06 -9.98, 7.06 -15.52, 7.06 -19.6" stroke="#000000" stroke-width="2" fill="none"></path></g></g><mask></mask><g stroke-linecap="round" transform="translate(128.54042053222656 148.8687744140625) rotate(0 191 373)"><path d="M-1.57 -1.95 C131.43 0.02, 263.19 -2.55, 381.55 -1.29 M380.51 -1.38 C389.17 253.85, 387.9 508.93, 381.51 745.12 M383.67 746.94 C249.14 752.32, 119.01 749.4, 2.01 745.89 M0.3 745.53 C2.33 465.89, 3.16 188.92, 0.83 0.45" stroke="#2f9e44" stroke-width="1.5" fill="none" stroke-dasharray="8 9"></path></g><g stroke-linecap="round" transform="translate(553.5404205322266 147.8687744140625) rotate(0 191 373)"><path d="M1.86 1.55 C111.37 1.36, 218.16 0.73, 383.22 1.1 M382.87 -0.71 C383.3 288.86, 384.73 577.77, 380.59 744.58 M382.18 747.42 C235.88 743.34, 86.14 741.73, -0.49 746.41 M0.89 747.02 C-2.14 474.52, -1.52 201.34, -0.73 0.1" stroke="#2f9e44" stroke-width="1.5" fill="none" stroke-dasharray="8 9"></path></g><g transform="translate(142.54042053222656 158.8687744140625) rotate(0 89.0625 9.599999999999909)"><text x="0" y="0" font-family="Cascadia, Segoe UI Emoji" font-size="16px" fill="#2f9e44" text-anchor="start" style="white-space: pre;" direction="ltr" dominant-baseline="text-before-edge">Availability Zone A</text></g><g transform="translate(564.4779205322266 161.26877441406214) rotate(0 89.0625 9.599999999999909)"><text x="0" y="0" font-family="Cascadia, Segoe UI Emoji" font-size="16px" fill="#2f9e44" text-anchor="start" style="white-space: pre;" direction="ltr" dominant-baseline="text-before-edge">Availability Zone B</text></g><g stroke-linecap="round" transform="translate(156.54042053222656 204.8687744140625) rotate(0 158 332)"><path d="M-2.44 -2.07 C100.66 -3.53, 194.57 -4.91, 318.67 -1.68 M314.65 -0.88 C320.77 234.81, 318.59 465.7, 316.93 662.44 M316.78 663.37 C217.37 659.17, 117.44 661.13, 2.6 663.55 M0.99 663.25 C4.17 443.54, 6.58 227.19, -0.04 -0.65" stroke="#1971c2" stroke-width="1.5" fill="none" stroke-dasharray="1.5 7"></path></g><g transform="translate(177.47792053222656 219.26877441406214) rotate(0 37.5 9.599999999999909)"><text x="0" y="0" font-family="Cascadia, Segoe UI Emoji" font-size="16px" fill="#1971c2" text-anchor="start" style="white-space: pre;" direction="ltr" dominant-baseline="text-before-edge">Subnet A</text></g><g stroke-linecap="round" transform="translate(572.5404205322266 200.8687744140625) rotate(0 158 332)"><path d="M-0.56 0.47 C112.42 1.4, 220.14 0.06, 318.73 -2.14 M316.26 -0.03 C320.57 234.31, 320.22 464.7, 317.27 665.2 M313.81 664.15 C198.69 664.21, 83 660.58, 1.29 664.56 M-0.63 663.89 C1.35 480.72, -0.48 298.31, -0.16 0.49" stroke="#1971c2" stroke-width="1.5" fill="none" stroke-dasharray="1.5 7"></path></g><g transform="translate(593.4779205322266 215.26877441406214) rotate(0 37.5 9.599999999999909)"><text x="0" y="0" font-family="Cascadia, Segoe UI Emoji" font-size="16px" fill="#1971c2" text-anchor="start" style="white-space: pre;" direction="ltr" dominant-baseline="text-before-edge">Subnet B</text></g><g stroke-linecap="round" transform="translate(186.54042053222656 252.8687744140625) rotate(0 341 296)"><path d="M-3.87 1.17 L685.45 2 L685.02 589.72 L-1.3 590.71" stroke="none" stroke-width="0" fill="#ffec99"></path><path d="M-0.21 0.65 C149.73 5.68, 299.99 3.15, 683.41 1.25 M0.53 0.35 C171.6 3.28, 342.4 2.88, 682.64 -0.74 M681.47 -0.06 C680.92 188.58, 682.41 374.6, 683.01 592.8 M681.29 -0.39 C687.26 181.1, 685.7 361.78, 682.51 592.18 M680.83 591.36 C441 586.37, 199.79 588.06, -0.4 593.39 M682.43 592.19 C528.22 596.89, 375.95 597.12, 0.5 591.81 M0.92 591.19 C-1.77 403.28, 0.32 215.89, -1.49 -0.29 M0.24 592.48 C2.74 398.66, 3.25 206.48, 0.48 0.76" stroke="#1e1e1e" stroke-width="1" fill="none"></path></g><g transform="translate(197.54042053222656 266.8687744140625) rotate(0 65.625 9.599999999999909)"><text x="0" y="0" font-family="Cascadia, Segoe UI Emoji" font-size="16px" fill="#1e1e1e" text-anchor="start" style="white-space: pre;" direction="ltr" dominant-baseline="text-before-edge">Security Group</text></g><g stroke-linecap="round" transform="translate(209.54042053222656 297.8687744140625) rotate(0 320 61)"><path d="M-3.51 0.1 L636.81 -3.57 L640.97 125.76 L-1.86 122.8" stroke="none" stroke-width="0" fill="#ffec99"></path><path d="M-0.26 -0.27 C218.93 1.5, 435.31 1.19, 638.84 -0.34 M-0.18 0.75 C137.51 4.42, 275.97 3.76, 639.98 0.08 M641.25 0.09 C640.81 36.26, 639.62 73.51, 638.65 121.48 M641.52 -1.68 C643.01 36.98, 644.19 74.67, 640.73 120.62 M640.28 122.44 C480.48 126.96, 321.63 125.45, -0.82 122.19 M639.62 122.73 C478.37 126.05, 316.32 124.95, 0.06 121.91 M3.41 121.98 C2.28 85.88, -1.01 50.82, -0.31 -0.39 M-1.98 120.65 C0.35 85.89, -1.17 48.83, 1.41 -1.89" stroke="#1971c2" stroke-width="1" fill="none"></path></g><g stroke-linecap="round" transform="translate(479.3917694091797 317.22760209810895) rotate(0 33.148651123046875 33.148651123046875)"><path d="M66.3 33.15 C66.3 34.88, 66.16 36.63, 65.89 38.33 C65.62 40.04, 65.21 41.75, 64.67 43.39 C64.14 45.04, 63.47 46.66, 62.68 48.2 C61.9 49.74, 60.98 51.23, 59.97 52.63 C58.95 54.03, 57.81 55.37, 56.59 56.59 C55.37 57.81, 54.03 58.95, 52.63 59.97 C51.23 60.98, 49.74 61.9, 48.2 62.68 C46.66 63.47, 45.04 64.14, 43.39 64.67 C41.75 65.21, 40.04 65.62, 38.33 65.89 C36.63 66.16, 34.88 66.3, 33.15 66.3 C31.42 66.3, 29.67 66.16, 27.96 65.89 C26.26 65.62, 24.55 65.21, 22.91 64.67 C21.26 64.14, 19.64 63.47, 18.1 62.68 C16.56 61.9, 15.06 60.98, 13.66 59.97 C12.27 58.95, 10.93 57.81, 9.71 56.59 C8.49 55.37, 7.35 54.03, 6.33 52.63 C5.31 51.23, 4.4 49.74, 3.61 48.2 C2.83 46.66, 2.16 45.04, 1.62 43.39 C1.09 41.75, 0.68 40.04, 0.41 38.33 C0.14 36.63, 0 34.88, 0 33.15 C0 31.42, 0.14 29.67, 0.41 27.96 C0.68 26.26, 1.09 24.55, 1.62 22.91 C2.16 21.26, 2.83 19.64, 3.61 18.1 C4.4 16.56, 5.31 15.06, 6.33 13.66 C7.35 12.27, 8.49 10.93, 9.71 9.71 C10.93 8.49, 12.27 7.35, 13.66 6.33 C15.06 5.31, 16.56 4.4, 18.1 3.61 C19.64 2.83, 21.26 2.16, 22.91 1.62 C24.55 1.09, 26.26 0.68, 27.96 0.41 C29.67 0.14, 31.42 0, 33.15 0 C34.88 0, 36.63 0.14, 38.33 0.41 C40.04 0.68, 41.75 1.09, 43.39 1.62 C45.04 2.16, 46.66 2.83, 48.2 3.61 C49.74 4.4, 51.23 5.31, 52.63 6.33 C54.03 7.35, 55.37 8.49, 56.59 9.71 C57.81 10.93, 58.95 12.27, 59.97 13.66 C60.98 15.06, 61.9 16.56, 62.68 18.1 C63.47 19.64, 64.14 21.26, 64.67 22.91 C65.21 24.55, 65.62 26.26, 65.89 27.96 C66.16 29.67, 66.23 32.28, 66.3 33.15 C66.37 34.01, 66.37 32.28, 66.3 33.15" stroke="#000000" stroke-width="2" fill="none"></path></g><g stroke-linecap="round" transform="translate(501.9769743736465 330.72853600586586) rotate(0 10.158197683523895 6.089658315248926)"><path d="M0 0 C4.65 0, 9.29 0, 20.32 0 M0 0 C6.07 0, 12.15 0, 20.32 0 M20.32 0 C20.32 4.24, 20.32 8.48, 20.32 12.18 M20.32 0 C20.32 4.62, 20.32 9.24, 20.32 12.18 M20.32 12.18 C14.71 12.18, 9.1 12.18, 0 12.18 M20.32 12.18 C16.08 12.18, 11.85 12.18, 0 12.18 M0 12.18 C0 9.04, 0 5.9, 0 0 M0 12.18 C0 9.72, 0 7.25, 0 0" stroke="#c3b6ee" stroke-width="2" fill="none"></path></g><g stroke-linecap="round" transform="translate(492.9510428635772 361.4894846484085) rotate(0 3.894987583149941 3.131589607281512)"><path d="M0 0 C1.89 0, 3.79 0, 7.79 0 M0 0 C2.74 0, 5.49 0, 7.79 0 M7.79 0 C7.79 2.43, 7.79 4.86, 7.79 6.26 M7.79 0 C7.79 1.94, 7.79 3.87, 7.79 6.26 M7.79 6.26 C4.94 6.26, 2.08 6.26, 0 6.26 M7.79 6.26 C5.97 6.26, 4.15 6.26, 0 6.26 M0 6.26 C0 4.25, 0 2.23, 0 0 M0 6.26 C0 4.42, 0 2.57, 0 0" stroke="#c3b6ee" stroke-width="2" fill="none"></path></g><g stroke-linecap="round" transform="translate(503.27382662247373 361.4894846484085) rotate(0 3.894987583149941 3.131589607281512)"><path d="M0 0 C2.41 0, 4.82 0, 7.79 0 M0 0 C2 0, 4 0, 7.79 0 M7.79 0 C7.79 1.62, 7.79 3.24, 7.79 6.26 M7.79 0 C7.79 1.93, 7.79 3.86, 7.79 6.26 M7.79 6.26 C5.85 6.26, 3.91 6.26, 0 6.26 M7.79 6.26 C4.79 6.26, 1.79 6.26, 0 6.26 M0 6.26 C0 4.2, 0 2.13, 0 0 M0 6.26 C0 4.36, 0 2.47, 0 0" stroke="#c3b6ee" stroke-width="2" fill="none"></path></g><g stroke-linecap="round" transform="translate(514.4295433487905 361.4894846484085) rotate(0 3.894987583149941 3.131589607281512)"><path d="M0 0 C2.6 0, 5.2 0, 7.79 0 M0 0 C2.94 0, 5.88 0, 7.79 0 M7.79 0 C7.79 1.8, 7.79 3.6, 7.79 6.26 M7.79 0 C7.79 1.4, 7.79 2.8, 7.79 6.26 M7.79 6.26 C6.11 6.26, 4.42 6.26, 0 6.26 M7.79 6.26 C5.09 6.26, 2.39 6.26, 0 6.26 M0 6.26 C0 4.5, 0 2.73, 0 0 M0 6.26 C0 4.35, 0 2.44, 0 0" stroke="#c3b6ee" stroke-width="2" fill="none"></path></g><g stroke-linecap="round" transform="translate(524.3012574848399 361.4894846484085) rotate(0 3.894987583149941 3.131589607281512)"><path d="M0 0 C1.61 0, 3.22 0, 7.79 0 M0 0 C2.05 0, 4.1 0, 7.79 0 M7.79 0 C7.79 1.84, 7.79 3.68, 7.79 6.26 M7.79 0 C7.79 1.74, 7.79 3.48, 7.79 6.26 M7.79 6.26 C4.99 6.26, 2.19 6.26, 0 6.26 M7.79 6.26 C4.87 6.26, 1.95 6.26, 0 6.26 M0 6.26 C0 4.47, 0 2.68, 0 0 M0 6.26 C0 4.1, 0 1.94, 0 0" stroke="#c3b6ee" stroke-width="2" fill="none"></path></g><g stroke-linecap="round"><g transform="translate(512.1219893891875 343.49465964410683) rotate(0 -7.252001695386525 8.829389229263143)"><path d="M0 0 C0 1.26, 0 2.53, 0 5.05 M0 0 C0 1.55, 0 3.09, 0 5.05 M0 5.05 C-2.36 5.05, -4.71 5.05, -10.13 5.05 M0 5.05 C-3.38 5.05, -6.77 5.05, -10.13 5.05 M-10.13 5.05 C-10.13 6.6, -10.13 8.14, -10.13 12.32 M-10.13 5.05 C-10.13 7.63, -10.13 10.21, -10.13 12.32 M-10.13 12.32 C-11.87 12.32, -13.61 12.32, -14.5 12.32 M-10.13 12.32 C-11.4 12.32, -12.67 12.32, -14.5 12.32 M-14.5 12.32 C-14.5 13.61, -14.5 14.9, -14.5 17.66 M-14.5 12.32 C-14.5 14.36, -14.5 16.39, -14.5 17.66" stroke="#c3b6ee" stroke-width="2" fill="none"></path></g></g><mask></mask><g stroke-linecap="round"><g transform="translate(512.1501793102525 343.45627395228894) rotate(0 7.2520016953867525 8.750915624983918)"><path d="M0 0 C0 1.32, 0 2.64, 0 5.07 M0 0 C0 2.01, 0 4.02, 0 5.07 M0 5.07 C2.44 5.07, 4.87 5.07, 10.13 5.07 M0 5.07 C3.48 5.07, 6.97 5.07, 10.13 5.07 M10.13 5.07 C10.13 7.94, 10.13 10.82, 10.13 12.34 M10.13 5.07 C10.13 6.96, 10.13 8.84, 10.13 12.34 M10.13 12.34 C11.28 12.34, 12.43 12.34, 14.5 12.34 M10.13 12.34 C11.39 12.34, 12.64 12.34, 14.5 12.34 M14.5 12.34 C14.5 13.75, 14.5 15.16, 14.5 17.5 M14.5 12.34 C14.5 14.13, 14.5 15.92, 14.5 17.5" stroke="#c3b6ee" stroke-width="2" fill="none"></path></g></g><mask></mask><g stroke-linecap="round"><g transform="translate(502.01252999525605 355.79756180016284) rotate(0 2.1351012105781138 2.6374661708332496)"><path d="M0 0 C1.49 0, 2.97 0, 4.27 0 M0 0 C1.62 0, 3.24 0, 4.27 0 M4.27 0 C4.27 1.46, 4.27 2.91, 4.27 5.27 M4.27 0 C4.27 1.1, 4.27 2.2, 4.27 5.27" stroke="#c3b6ee" stroke-width="2" fill="none"></path></g></g><mask></mask><g stroke-linecap="round"><g transform="translate(523.5589069423286 355.79756180016284) rotate(0 -2.1351012105781138 2.6374661708332496)"><path d="M0 0 C-1.66 0, -3.32 0, -4.27 0 M0 0 C-1.32 0, -2.64 0, -4.27 0 M-4.27 0 C-4.27 1.93, -4.27 3.86, -4.27 5.27 M-4.27 0 C-4.27 1.23, -4.27 2.46, -4.27 5.27" stroke="#c3b6ee" stroke-width="2" fill="none"></path></g></g><mask></mask><g transform="translate(496.0149418679198 386.50994673001605) rotate(0 19.819992065429688 12)"><text x="19.819992065429688" y="0" font-family="Virgil, Segoe UI Emoji" font-size="20px" fill="#000000" text-anchor="middle" style="white-space: pre;" direction="ltr" dominant-baseline="text-before-edge">ALB</text></g><g stroke-linecap="round" transform="translate(208.54042053222656 444.8687744140625) rotate(0 132 184)"><path d="M3.39 2.87 L263.42 3.62 L264.87 370.5 L0.73 367.88" stroke="none" stroke-width="0" fill="#ffec99"></path><path d="M-0.1 1.89 C67.94 -3.35, 132.58 -1.4, 261.08 -2.89 M263.73 1.39 C270.23 142.51, 265.39 289.84, 263.21 366.77 M266.47 365.4 C192.98 364.42, 117.89 366.44, -1.4 367.89 M-1.32 366.53 C0.93 268.62, 1.58 164.45, 0.45 1.89" stroke="#1971c2" stroke-width="1.5" fill="none" stroke-dasharray="8 9"></path></g><g stroke-linecap="round"><g transform="translate(329.51566805697894 500.7068814233262) rotate(0 2.5594059405941607 26.059405940593933)"><path d="M0 0 C0 3.59, 0 7.17, 0 10.7 M0 0 C0 2.71, 0 5.41, 0 10.7 M0 10.7 C-3.11 12.54, -6.22 14.38, -10.24 16.75 M0 10.7 C-3.75 12.92, -7.51 15.14, -10.24 16.75 M-10.24 16.75 C-10.24 21.46, -10.24 26.17, -10.24 33.97 M-10.24 16.75 C-10.24 23.19, -10.24 29.64, -10.24 33.97 M-10.24 33.97 C-5.73 36.49, -1.22 39.02, 1.4 40.49 M-10.24 33.97 C-5.6 36.57, -0.96 39.16, 1.4 40.49 M1.4 40.49 C5.31 38.66, 9.21 36.84, 15.36 33.97 M1.4 40.49 C4.88 38.86, 8.36 37.23, 15.36 33.97 M15.36 33.97 C18.13 35.48, 20.91 37, 25.59 39.55 M15.36 33.97 C18.72 35.81, 22.09 37.64, 25.59 39.55 M25.59 39.55 C17.36 44.09, 9.14 48.62, 2.79 52.12 M25.59 39.55 C17.93 43.78, 10.26 48, 2.79 52.12 M2.79 52.12 C-2.37 49.33, -7.54 46.54, -20.48 39.55 M2.79 52.12 C-6 47.37, -14.79 42.63, -20.48 39.55 M-20.48 39.55 C-20.48 28.73, -20.48 17.9, -20.48 12.1 M-20.48 39.55 C-20.48 32.16, -20.48 24.76, -20.48 12.1 M-20.48 12.1 C-14.77 8.73, -9.07 5.36, 0 0 M-20.48 12.1 C-15.45 9.13, -10.43 6.17, 0 0" stroke="#000000" stroke-width="2" fill="none"></path></g></g><mask></mask><g stroke-linecap="round"><g transform="translate(334.6344799381668 499.77618835402063) rotate(0 10.702970297029651 17.915841584158443)"><path d="M0 0 C0 2.93, 0 5.86, 0 11.63 M0 0 C0 4.52, 0 9.03, 0 11.63 M0 11.63 C2.49 13.13, 4.97 14.62, 11.63 18.61 M0 11.63 C3.76 13.89, 7.52 16.14, 11.63 18.61 M11.63 18.61 C11.63 21.21, 11.63 23.82, 11.63 31.18 M11.63 18.61 C11.63 22.26, 11.63 25.9, 11.63 31.18 M11.63 31.18 C14.21 32.47, 16.79 33.76, 20.94 35.83 M11.63 31.18 C13.55 32.14, 15.47 33.09, 20.94 35.83 M20.94 35.83 C21.04 30.75, 21.14 25.66, 21.41 12.56 M20.94 35.83 C21.09 28.45, 21.24 21.08, 21.41 12.56 M21.41 12.56 C13.55 7.95, 5.69 3.34, 0 0 M21.41 12.56 C14.84 8.71, 8.28 4.86, 0 0" stroke="#000000" stroke-width="2" fill="none"></path></g></g><mask></mask><g stroke-linecap="round" transform="translate(300.6455453518297 494.43660799885856) rotate(0 31.89487518039664 31.86433283040742)"><path d="M0 0 C0 0, 0 0, 0 0 M0 0 C0 0, 0 0, 0 0 M0.13 12.04 C2.81 8.96, 5.49 5.88, 10.63 -0.03 M0.13 12.04 C3.39 8.3, 6.64 4.55, 10.63 -0.03 M0.27 24.08 C8.06 15.11, 15.86 6.14, 21.26 -0.07 M0.27 24.08 C5.14 18.47, 10.02 12.86, 21.26 -0.07 M-0.26 36.88 C7.28 28.21, 14.81 19.55, 31.89 -0.1 M-0.26 36.88 C7.65 27.78, 15.56 18.68, 31.89 -0.1 M-0.12 48.92 C10.39 36.83, 20.9 24.73, 42.52 -0.14 M-0.12 48.92 C16.86 29.38, 33.84 9.84, 42.52 -0.14 M0.01 60.96 C20.42 37.48, 40.83 14, 53.15 -0.17 M0.01 60.96 C12.83 46.21, 25.65 31.46, 53.15 -0.17 M8.02 63.94 C29.77 38.92, 51.52 13.9, 63.78 -0.21 M8.02 63.94 C26.88 42.24, 45.75 20.53, 63.78 -0.21 M18.65 63.91 C35.56 44.45, 52.47 25, 64.57 11.08 M18.65 63.91 C35.65 44.35, 52.65 24.8, 64.57 11.08 M29.28 63.87 C42.63 48.51, 55.99 33.14, 64.7 23.12 M29.28 63.87 C37.81 54.05, 46.35 44.23, 64.7 23.12 M39.91 63.84 C45.32 57.62, 50.72 51.39, 64.18 35.92 M39.91 63.84 C49.25 53.09, 58.6 42.34, 64.18 35.92 M50.54 63.81 C54.04 59.78, 57.54 55.75, 64.31 47.96 M50.54 63.81 C54.29 59.48, 58.05 55.16, 64.31 47.96 M61.17 63.77 C62.33 62.43, 63.5 61.09, 64.45 60 M61.17 63.77 C62.2 62.58, 63.24 61.38, 64.45 60 M0.14 63.85 C0.14 63.85, 0.14 63.85, 0.14 63.85 M0.14 63.85 C0.14 63.85, 0.14 63.85, 0.14 63.85 M12.18 63.72 C8.01 60.09, 3.83 56.46, 0.11 53.22 M12.18 63.72 C8.89 60.85, 5.59 57.99, 0.11 53.22 M24.23 63.59 C18.76 58.84, 13.3 54.09, 0.07 42.59 M24.23 63.59 C17.48 57.72, 10.74 51.86, 0.07 42.59 M36.27 63.45 C23.74 52.57, 11.21 41.68, 0.04 31.96 M36.27 63.45 C27.52 55.85, 18.77 48.25, 0.04 31.96 M49.06 63.98 C30.72 48.03, 12.37 32.08, 0.01 21.33 M49.06 63.98 C35.43 52.13, 21.8 40.28, 0.01 21.33 M61.1 63.84 C44.1 49.06, 27.09 34.28, -0.03 10.7 M61.1 63.84 C43.58 48.61, 26.05 33.37, -0.03 10.7 M64.09 55.84 C43.69 38.1, 23.29 20.37, -0.06 0.07 M64.09 55.84 C47.89 41.76, 31.7 27.68, -0.06 0.07 M64.05 45.21 C51.45 34.25, 38.84 23.3, 11.22 -0.72 M64.05 45.21 C45.47 29.05, 26.88 12.89, 11.22 -0.72 M64.02 34.58 C53.23 25.2, 42.45 15.83, 23.26 -0.85 M64.02 34.58 C53.41 25.36, 42.81 16.14, 23.26 -0.85 M63.98 23.95 C55.55 16.62, 47.12 9.29, 35.3 -0.98 M63.98 23.95 C56.59 17.52, 49.19 11.09, 35.3 -0.98 M63.95 13.32 C59.32 9.3, 54.7 5.28, 48.1 -0.46 M63.95 13.32 C58.62 8.68, 53.29 4.05, 48.1 -0.46 M63.91 2.69 C62.84 1.76, 61.77 0.83, 60.14 -0.59 M63.91 2.69 C62.77 1.69, 61.62 0.69, 60.14 -0.59" stroke="#fd7e1488" stroke-width="1" fill="none"></path><path d="M0 0 C18.23 0, 36.47 0, 63.79 0 M0 0 C23.5 0, 47.01 0, 63.79 0 M63.79 0 C63.79 13.46, 63.79 26.92, 63.79 63.73 M63.79 0 C63.79 19.74, 63.79 39.48, 63.79 63.73 M63.79 63.73 C45.52 63.73, 27.25 63.73, 0 63.73 M63.79 63.73 C40.8 63.73, 17.8 63.73, 0 63.73 M0 63.73 C0 41.16, 0 18.59, 0 0 M0 63.73 C0 48.61, 0 33.48, 0 0" stroke="#000000" stroke-width="2" fill="none"></path></g><g transform="translate(313.2804412841797 561.3009408292664) rotate(0 19.259979248046875 12)"><text x="19.259979248046875" y="0" font-family="Virgil, Segoe UI Emoji" font-size="20px" fill="#000000" text-anchor="middle" style="white-space: pre;" direction="ltr" dominant-baseline="text-before-edge">ECS</text></g><g stroke-linecap="round" transform="translate(234.79984221351788 663.6511586735915) rotate(0 32.230576182478444 32.199712367129905)"><path d="M0 0 C0 0, 0 0, 0 0 M0 0 C0 0, 0 0, 0 0 M0.13 12.04 C4.09 7.48, 8.05 2.93, 10.63 -0.03 M0.13 12.04 C4.1 7.47, 8.07 2.91, 10.63 -0.03 M0.27 24.08 C7.66 15.58, 15.05 7.07, 21.26 -0.07 M0.27 24.08 C5.75 17.77, 11.24 11.46, 21.26 -0.07 M-0.26 36.88 C10.21 24.84, 20.67 12.8, 31.89 -0.1 M-0.26 36.88 C11.76 23.05, 23.78 9.23, 31.89 -0.1 M-0.12 48.92 C12.53 34.36, 25.18 19.81, 42.52 -0.14 M-0.12 48.92 C11.05 36.07, 22.21 23.22, 42.52 -0.14 M0.01 60.96 C19.98 37.99, 39.94 15.02, 53.15 -0.17 M0.01 60.96 C17.68 40.63, 35.35 20.31, 53.15 -0.17 M7.36 64.7 C23.73 45.87, 40.1 27.04, 63.78 -0.21 M7.36 64.7 C21.29 48.67, 35.23 32.64, 63.78 -0.21 M17.99 64.66 C31.55 49.06, 45.11 33.46, 64.57 11.08 M17.99 64.66 C32.66 47.79, 47.33 30.91, 64.57 11.08 M28.62 64.63 C37.99 53.85, 47.37 43.06, 64.7 23.12 M28.62 64.63 C39.02 52.66, 49.42 40.7, 64.7 23.12 M39.25 64.59 C44.71 58.32, 50.16 52.04, 64.84 35.16 M39.25 64.59 C48.31 54.17, 57.37 43.75, 64.84 35.16 M49.88 64.56 C53.07 60.89, 56.25 57.23, 64.97 47.2 M49.88 64.56 C54.85 58.84, 59.83 53.12, 64.97 47.2 M60.51 64.53 C61.54 63.34, 62.57 62.16, 64.45 60 M60.51 64.53 C61.51 63.37, 62.51 62.22, 64.45 60 M-0.19 64.24 C-0.19 64.24, -0.19 64.24, -0.19 64.24 M-0.19 64.24 C-0.19 64.24, -0.19 64.24, -0.19 64.24 M11.85 64.1 C7.82 60.59, 3.78 57.09, -0.22 53.61 M11.85 64.1 C7.11 59.98, 2.37 55.86, -0.22 53.61 M24.65 64.63 C17.88 58.74, 11.1 52.85, -0.26 42.98 M24.65 64.63 C16.02 57.13, 7.4 49.63, -0.26 42.98 M36.69 64.49 C25.36 54.64, 14.02 44.79, -0.29 32.35 M36.69 64.49 C24.96 54.29, 13.22 44.09, -0.29 32.35 M48.73 64.36 C29.95 48.03, 11.16 31.7, -0.33 21.72 M48.73 64.36 C30.66 48.65, 12.58 32.94, -0.33 21.72 M60.77 64.23 C46.56 51.87, 32.34 39.51, -0.36 11.09 M60.77 64.23 C39.49 45.73, 18.21 27.23, -0.36 11.09 M65.26 57.53 C47.16 41.79, 29.05 26.05, 0.36 1.11 M65.26 57.53 C46.82 41.5, 28.38 25.47, 0.36 1.11 M65.23 46.9 C46.51 30.63, 27.79 14.36, 10.89 -0.33 M65.23 46.9 C44.71 29.07, 24.19 11.23, 10.89 -0.33 M65.2 36.27 C50.14 23.18, 35.08 10.1, 22.93 -0.47 M65.2 36.27 C48.44 21.7, 31.68 7.14, 22.93 -0.47 M65.16 25.64 C57.54 19.02, 49.92 12.39, 34.97 -0.6 M65.16 25.64 C57.02 18.56, 48.88 11.49, 34.97 -0.6 M65.13 15.01 C60.11 10.65, 55.09 6.29, 47.77 -0.08 M65.13 15.01 C60.26 10.78, 55.39 6.55, 47.77 -0.08 M65.09 4.38 C63.27 2.8, 61.45 1.21, 59.81 -0.21 M65.09 4.38 C63.72 3.19, 62.34 1.99, 59.81 -0.21" stroke="#fd7e1488" stroke-width="1" fill="none"></path><path d="M0 0 C19.94 0, 39.87 0, 64.46 0 M0 0 C21.03 0, 42.05 0, 64.46 0 M64.46 0 C64.46 14.43, 64.46 28.85, 64.46 64.4 M64.46 0 C64.46 18.79, 64.46 37.58, 64.46 64.4 M64.46 64.4 C45.74 64.4, 27.01 64.4, 0 64.4 M64.46 64.4 C46.05 64.4, 27.64 64.4, 0 64.4 M0 64.4 C0 42.13, 0 19.86, 0 0 M0 64.4 C0 47.88, 0 31.36, 0 0" stroke="#000000" stroke-width="2" fill="none"></path></g><g stroke-linecap="round"><g transform="translate(282.06479218669483 679.0298759598509) rotate(0 -14.52794325257264 4.246637183852272)" fill-rule="evenodd"><path d="M0 0 L-0.01 -5.02 L-14.76 -10.29 L-28.99 -5.08 L-29.08 12.27 L-14.61 18.78 L0.03 12.33 L0 0" stroke="none" stroke-width="0" fill="#ff00" fill-rule="evenodd"></path><path d="M0 0 C0 -1.83, -0.01 -3.66, -0.01 -5.02 M0 0 C0 -1.32, -0.01 -2.64, -0.01 -5.02 M-0.01 -5.02 C-4.9 -6.77, -9.78 -8.51, -14.76 -10.29 M-0.01 -5.02 C-3.7 -6.34, -7.38 -7.65, -14.76 -10.29 M-14.76 -10.29 C-20.37 -8.23, -25.97 -6.18, -28.99 -5.08 M-14.76 -10.29 C-18.16 -9.04, -21.55 -7.8, -28.99 -5.08 M-28.99 -5.08 C-29.02 0.82, -29.06 6.73, -29.08 12.27 M-28.99 -5.08 C-29.02 -0.2, -29.04 4.68, -29.08 12.27 M-29.08 12.27 C-23.58 14.75, -18.07 17.22, -14.61 18.78 M-29.08 12.27 C-23.62 14.73, -18.15 17.19, -14.61 18.78 M-14.61 18.78 C-10.88 17.13, -7.15 15.49, 0.03 12.33 M-14.61 18.78 C-10.65 17.03, -6.68 15.28, 0.03 12.33 M0.03 12.33 C0.02 8.13, 0.01 3.94, 0 0 M0.03 12.33 C0.02 9.39, 0.01 6.45, 0 0 M0 0 C0 0, 0 0, 0 0 M0 0 C0 0, 0 0, 0 0" stroke="#000" stroke-width="2" fill="none"></path></g></g><mask></mask><g stroke-linecap="round"><g transform="translate(253.49867481350293 674.2254604995951) rotate(0 7.040937546110854 11.492780070298522)"><path d="M0 0 C5.08 2.04, 10.17 4.07, 14.08 5.64 M0 0 C3.47 1.39, 6.94 2.78, 14.08 5.64 M14.08 5.64 C14.07 9.54, 14.05 13.45, 14.02 22.99 M14.08 5.64 C14.06 11.38, 14.04 17.12, 14.02 22.99" stroke="#000000" stroke-width="2" fill="none"></path></g></g><mask></mask><g stroke-linecap="round"><g transform="translate(267.536848934119 679.7921781971536) rotate(0 6.968669893097058 -2.7100382917601564)"><path d="M0 0 C3.48 -1.35, 6.96 -2.71, 13.94 -5.42 M0 0 C3.78 -1.47, 7.56 -2.94, 13.94 -5.42" stroke="#000000" stroke-width="2" fill="none"></path></g></g><mask></mask><g stroke-linecap="round"><g transform="translate(260.8659446065558 707.7584752832436) rotate(0 -6.263092272848326 1.8307533330344086)" fill-rule="evenodd"><path d="M0 0 L-0.01 -2.17 L-6.36 -4.43 L-12.5 -2.19 L-12.54 5.29 L-6.3 8.1 L0.01 5.31 L0 0" stroke="none" stroke-width="0" fill="#ff00" fill-rule="evenodd"></path><path d="M0 0 C0 -0.69, 0 -1.37, -0.01 -2.17 M0 0 C0 -0.79, 0 -1.59, -0.01 -2.17 M-0.01 -2.17 C-1.96 -2.86, -3.9 -3.56, -6.36 -4.43 M-0.01 -2.17 C-2.51 -3.06, -5.02 -3.95, -6.36 -4.43 M-6.36 -4.43 C-8.82 -3.54, -11.27 -2.64, -12.5 -2.19 M-6.36 -4.43 C-8.21 -3.76, -10.06 -3.08, -12.5 -2.19 M-12.5 -2.19 C-12.51 -0.17, -12.52 1.85, -12.54 5.29 M-12.5 -2.19 C-12.51 -0.59, -12.52 1.01, -12.54 5.29 M-12.54 5.29 C-10.38 6.26, -8.21 7.23, -6.3 8.1 M-12.54 5.29 C-10.22 6.33, -7.9 7.38, -6.3 8.1 M-6.3 8.1 C-4.29 7.21, -2.28 6.32, 0.01 5.31 M-6.3 8.1 C-4.23 7.18, -2.16 6.27, 0.01 5.31 M0.01 5.31 C0.01 4.02, 0.01 2.72, 0 0 M0.01 5.31 C0.01 3.51, 0 1.7, 0 0 M0 0 C0 0, 0 0, 0 0 M0 0 C0 0, 0 0, 0 0" stroke="#000" stroke-width="2" fill="none"></path></g></g><mask></mask><g stroke-linecap="round"><g transform="translate(248.5509027678836 705.6872600519118) rotate(0 3.0353946716336395 4.95461338197947)"><path d="M0 0 C1.4 0.56, 2.8 1.12, 6.07 2.43 M0 0 C1.55 0.62, 3.1 1.24, 6.07 2.43 M6.07 2.43 C6.06 4.75, 6.05 7.07, 6.04 9.91 M6.07 2.43 C6.06 5.21, 6.05 7.99, 6.04 9.91" stroke="#000000" stroke-width="2" fill="none"></path></g></g><mask></mask><g stroke-linecap="round"><g transform="translate(254.60285233370723 708.0871088116846) rotate(0 3.004239609193064 -1.1683154035749794)"><path d="M0 0 C1.68 -0.65, 3.37 -1.31, 6.01 -2.34 M0 0 C1.23 -0.48, 2.47 -0.96, 6.01 -2.34" stroke="#000000" stroke-width="2" fill="none"></path></g></g><mask></mask><g stroke-linecap="round"><g transform="translate(274.00308516330006 714.7778951770188) rotate(0 -6.263092272848553 1.8307533330344086)" fill-rule="evenodd"><path d="M0 0 L-0.01 -2.17 L-6.36 -4.43 L-12.5 -2.19 L-12.54 5.29 L-6.3 8.1 L0.01 5.31 L0 0" stroke="none" stroke-width="0" fill="#ff00" fill-rule="evenodd"></path><path d="M0 0 C0 -0.49, 0 -0.97, -0.01 -2.17 M0 0 C0 -0.63, 0 -1.26, -0.01 -2.17 M-0.01 -2.17 C-1.85 -2.82, -3.7 -3.48, -6.36 -4.43 M-0.01 -2.17 C-1.82 -2.81, -3.64 -3.46, -6.36 -4.43 M-6.36 -4.43 C-8.49 -3.66, -10.61 -2.88, -12.5 -2.19 M-6.36 -4.43 C-7.94 -3.86, -9.51 -3.28, -12.5 -2.19 M-12.5 -2.19 C-12.51 -0.64, -12.52 0.91, -12.54 5.29 M-12.5 -2.19 C-12.51 -0.35, -12.52 1.48, -12.54 5.29 M-12.54 5.29 C-10.18 6.35, -7.83 7.41, -6.3 8.1 M-12.54 5.29 C-10.18 6.35, -7.82 7.41, -6.3 8.1 M-6.3 8.1 C-4.08 7.12, -1.85 6.14, 0.01 5.31 M-6.3 8.1 C-4.65 7.37, -3 6.64, 0.01 5.31 M0.01 5.31 C0.01 3.58, 0 1.85, 0 0 M0.01 5.31 C0.01 3.33, 0 1.34, 0 0 M0 0 C0 0, 0 0, 0 0 M0 0 C0 0, 0 0, 0 0" stroke="#000" stroke-width="2" fill="none"></path></g></g><mask></mask><g stroke-linecap="round"><g transform="translate(261.6880433246256 712.7066799456834) rotate(0 3.0353946716336395 4.95461338197947)"><path d="M0 0 C2.01 0.8, 4.02 1.61, 6.07 2.43 M0 0 C1.52 0.61, 3.03 1.21, 6.07 2.43 M6.07 2.43 C6.06 5.38, 6.05 8.32, 6.04 9.91 M6.07 2.43 C6.06 4.21, 6.06 6, 6.04 9.91" stroke="#000000" stroke-width="2" fill="none"></path></g></g><mask></mask><g stroke-linecap="round"><g transform="translate(267.7399928904538 715.106528705458) rotate(0 3.004239609193064 -1.1683154035749794)"><path d="M0 0 C1.35 -0.53, 2.7 -1.05, 6.01 -2.34 M0 0 C1.99 -0.77, 3.98 -1.55, 6.01 -2.34" stroke="#000000" stroke-width="2" fill="none"></path></g></g><mask></mask><g stroke-linecap="round"><g transform="translate(286.6424849887594 706.9246269709047) rotate(0 -6.263092272848553 1.8307533330344086)" fill-rule="evenodd"><path d="M0 0 L-0.01 -2.17 L-6.36 -4.43 L-12.5 -2.19 L-12.54 5.29 L-6.3 8.1 L0.01 5.31 L0 0" stroke="none" stroke-width="0" fill="#ff00" fill-rule="evenodd"></path><path d="M0 0 C0 -0.71, 0 -1.42, -0.01 -2.17 M0 0 C0 -0.78, 0 -1.56, -0.01 -2.17 M-0.01 -2.17 C-2.14 -2.93, -4.28 -3.69, -6.36 -4.43 M-0.01 -2.17 C-1.42 -2.67, -2.83 -3.17, -6.36 -4.43 M-6.36 -4.43 C-8.68 -3.59, -11 -2.74, -12.5 -2.19 M-6.36 -4.43 C-8.78 -3.55, -11.2 -2.66, -12.5 -2.19 M-12.5 -2.19 C-12.51 -0.17, -12.52 1.84, -12.54 5.29 M-12.5 -2.19 C-12.51 -0.1, -12.52 1.98, -12.54 5.29 M-12.54 5.29 C-11.01 5.98, -9.48 6.67, -6.3 8.1 M-12.54 5.29 C-10.48 6.22, -8.42 7.14, -6.3 8.1 M-6.3 8.1 C-4.64 7.37, -2.99 6.64, 0.01 5.31 M-6.3 8.1 C-4.71 7.39, -3.12 6.69, 0.01 5.31 M0.01 5.31 C0.01 3.68, 0 2.04, 0 0 M0.01 5.31 C0.01 3.24, 0 1.17, 0 0 M0 0 C0 0, 0 0, 0 0 M0 0 C0 0, 0 0, 0 0" stroke="#000" stroke-width="2" fill="none"></path></g></g><mask></mask><g stroke-linecap="round"><g transform="translate(274.3274431500822 704.8534117395711) rotate(0 3.0353946716336395 4.95461338197947)"><path d="M0 0 C1.86 0.75, 3.72 1.49, 6.07 2.43 M0 0 C2.39 0.96, 4.79 1.92, 6.07 2.43 M6.07 2.43 C6.06 5.42, 6.05 8.41, 6.04 9.91 M6.07 2.43 C6.06 4.69, 6.05 6.94, 6.04 9.91" stroke="#000000" stroke-width="2" fill="none"></path></g></g><mask></mask><g stroke-linecap="round"><g transform="translate(280.3793927159122 707.2532604993403) rotate(0 3.004239609193064 -1.1683154035749794)"><path d="M0 0 C1.86 -0.72, 3.73 -1.45, 6.01 -2.34 M0 0 C2.23 -0.87, 4.46 -1.74, 6.01 -2.34" stroke="#000000" stroke-width="2" fill="none"></path></g></g><mask></mask><g stroke-linecap="round"><g transform="translate(249.90262601243285 700.7853813842894) rotate(178.33979303936556 17.338548670725686 -8.18684442950007)"><path d="M0 0 C-0.62 -0.36, -2.66 -1.12, -3.74 -2.14 C-4.83 -3.16, -6.37 -4.65, -6.52 -6.13 C-6.66 -7.6, -5.97 -9.61, -4.61 -10.98 C-3.25 -12.36, -0.8 -13.5, 1.63 -14.37 C4.06 -15.24, 7.05 -15.79, 9.95 -16.2 C12.86 -16.6, 15.99 -16.86, 19.06 -16.78 C22.13 -16.7, 25.63 -16.28, 28.39 -15.71 C31.14 -15.15, 33.66 -14.36, 35.59 -13.41 C37.52 -12.46, 39.02 -11.32, 39.96 -10.04 C40.89 -8.76, 41.49 -7.11, 41.19 -5.74 C40.9 -4.38, 39.47 -2.89, 38.2 -1.86 C36.93 -0.84, 34.36 0.03, 33.59 0.41 M0 0 C-0.62 -0.36, -2.66 -1.12, -3.74 -2.14 C-4.83 -3.16, -6.37 -4.65, -6.52 -6.13 C-6.66 -7.6, -5.97 -9.61, -4.61 -10.98 C-3.25 -12.36, -0.8 -13.5, 1.63 -14.37 C4.06 -15.24, 7.05 -15.79, 9.95 -16.2 C12.86 -16.6, 15.99 -16.86, 19.06 -16.78 C22.13 -16.7, 25.63 -16.28, 28.39 -15.71 C31.14 -15.15, 33.66 -14.36, 35.59 -13.41 C37.52 -12.46, 39.02 -11.32, 39.96 -10.04 C40.89 -8.76, 41.49 -7.11, 41.19 -5.74 C40.9 -4.38, 39.47 -2.89, 38.2 -1.86 C36.93 -0.84, 34.36 0.03, 33.59 0.41" stroke="#000000" stroke-width="2" fill="none"></path></g></g><mask></mask><g transform="translate(227.0304183959961 732.0863901545335) rotate(0 39.50995635986328 12)"><text x="0" y="0" font-family="Virgil, Segoe UI Emoji" font-size="20px" fill="#000000" text-anchor="start" style="white-space: pre;" direction="ltr" dominant-baseline="text-before-edge">Fargate</text></g><g stroke-linecap="round" transform="translate(362.79988798988506 662.6511586735915) rotate(0 32.230576182478444 32.199712367129905)"><path d="M0 0 C0 0, 0 0, 0 0 M0 0 C0 0, 0 0, 0 0 M0.13 12.04 C4.28 7.27, 8.43 2.5, 10.63 -0.03 M0.13 12.04 C2.31 9.53, 4.49 7.03, 10.63 -0.03 M0.27 24.08 C8.28 14.86, 16.3 5.64, 21.26 -0.07 M0.27 24.08 C5.23 18.38, 10.19 12.67, 21.26 -0.07 M-0.26 36.88 C11.81 22.99, 23.88 9.11, 31.89 -0.1 M-0.26 36.88 C6.42 29.2, 13.1 21.52, 31.89 -0.1 M-0.12 48.92 C13.02 33.8, 26.16 18.69, 42.52 -0.14 M-0.12 48.92 C15.1 31.4, 30.33 13.89, 42.52 -0.14 M0.01 60.96 C12.19 46.94, 24.38 32.93, 53.15 -0.17 M0.01 60.96 C14.56 44.22, 29.11 27.48, 53.15 -0.17 M7.36 64.7 C19.31 50.95, 31.27 37.19, 63.78 -0.21 M7.36 64.7 C24.05 45.5, 40.74 26.29, 63.78 -0.21 M17.99 64.66 C30.05 50.79, 42.11 36.92, 64.57 11.08 M17.99 64.66 C32.1 48.43, 46.21 32.2, 64.57 11.08 M28.62 64.63 C36.18 55.93, 43.74 47.24, 64.7 23.12 M28.62 64.63 C39.82 51.74, 51.02 38.86, 64.7 23.12 M39.25 64.59 C45.52 57.39, 51.78 50.18, 64.84 35.16 M39.25 64.59 C45.99 56.84, 52.74 49.08, 64.84 35.16 M49.88 64.56 C55.85 57.7, 61.81 50.83, 64.97 47.2 M49.88 64.56 C53.36 60.56, 56.84 56.56, 64.97 47.2 M60.51 64.53 C61.48 63.41, 62.45 62.3, 64.45 60 M60.51 64.53 C62.07 62.73, 63.63 60.94, 64.45 60 M-0.19 64.24 C-0.19 64.24, -0.19 64.24, -0.19 64.24 M-0.19 64.24 C-0.19 64.24, -0.19 64.24, -0.19 64.24 M11.85 64.1 C7.04 59.92, 2.22 55.73, -0.22 53.61 M11.85 64.1 C9.27 61.86, 6.68 59.61, -0.22 53.61 M24.65 64.63 C19.63 60.26, 14.61 55.9, -0.26 42.98 M24.65 64.63 C15.56 56.73, 6.48 48.83, -0.26 42.98 M36.69 64.49 C24.92 54.26, 13.16 44.04, -0.29 32.35 M36.69 64.49 C25.58 54.83, 14.46 45.17, -0.29 32.35 M48.73 64.36 C33.94 51.5, 19.15 38.64, -0.33 21.72 M48.73 64.36 C34.13 51.67, 19.53 38.97, -0.33 21.72 M60.77 64.23 C42.6 48.43, 24.43 32.63, -0.36 11.09 M60.77 64.23 C41.69 47.64, 22.6 31.05, -0.36 11.09 M65.26 57.53 C42.58 37.82, 19.9 18.1, 0.36 1.11 M65.26 57.53 C41.04 36.47, 16.81 15.41, 0.36 1.11 M65.23 46.9 C48.54 32.39, 31.85 17.88, 10.89 -0.33 M65.23 46.9 C44.74 29.09, 24.25 11.28, 10.89 -0.33 M65.2 36.27 C51.22 24.13, 37.25 11.98, 22.93 -0.47 M65.2 36.27 C53.34 25.96, 41.48 15.65, 22.93 -0.47 M65.16 25.64 C53.17 15.22, 41.18 4.8, 34.97 -0.6 M65.16 25.64 C56.25 17.89, 47.34 10.15, 34.97 -0.6 M65.13 15.01 C61.51 11.87, 57.9 8.73, 47.77 -0.08 M65.13 15.01 C60.26 10.78, 55.38 6.54, 47.77 -0.08 M65.09 4.38 C63.53 3.03, 61.98 1.68, 59.81 -0.21 M65.09 4.38 C63.3 2.83, 61.52 1.27, 59.81 -0.21" stroke="#fd7e1488" stroke-width="1" fill="none"></path><path d="M0 0 C24.12 0, 48.25 0, 64.46 0 M0 0 C24.66 0, 49.31 0, 64.46 0 M64.46 0 C64.46 15.18, 64.46 30.36, 64.46 64.4 M64.46 0 C64.46 24.34, 64.46 48.67, 64.46 64.4 M64.46 64.4 C46.03 64.4, 27.6 64.4, 0 64.4 M64.46 64.4 C46.6 64.4, 28.74 64.4, 0 64.4 M0 64.4 C0 47.41, 0 30.41, 0 0 M0 64.4 C0 48.38, 0 32.36, 0 0" stroke="#000000" stroke-width="2" fill="none"></path></g><g stroke-linecap="round"><g transform="translate(410.064837963062 678.0298759598509) rotate(0 -14.52794325257264 4.246637183852272)" fill-rule="evenodd"><path d="M0 0 L-0.01 -5.02 L-14.76 -10.29 L-28.99 -5.08 L-29.08 12.27 L-14.61 18.78 L0.03 12.33 L0 0" stroke="none" stroke-width="0" fill="#ff00" fill-rule="evenodd"></path><path d="M0 0 C-0.01 -1.89, -0.01 -3.77, -0.01 -5.02 M0 0 C0 -1.36, -0.01 -2.71, -0.01 -5.02 M-0.01 -5.02 C-5.54 -6.99, -11.06 -8.97, -14.76 -10.29 M-0.01 -5.02 C-4.87 -6.76, -9.74 -8.49, -14.76 -10.29 M-14.76 -10.29 C-18.47 -8.93, -22.17 -7.57, -28.99 -5.08 M-14.76 -10.29 C-19.27 -8.64, -23.78 -6.99, -28.99 -5.08 M-28.99 -5.08 C-29.02 -0.48, -29.04 4.12, -29.08 12.27 M-28.99 -5.08 C-29.02 -0.57, -29.04 3.93, -29.08 12.27 M-29.08 12.27 C-25.46 13.9, -21.83 15.54, -14.61 18.78 M-29.08 12.27 C-25.78 13.76, -22.47 15.25, -14.61 18.78 M-14.61 18.78 C-11.45 17.38, -8.29 15.99, 0.03 12.33 M-14.61 18.78 C-9.78 16.65, -4.95 14.52, 0.03 12.33 M0.03 12.33 C0.02 9.84, 0.02 7.35, 0 0 M0.03 12.33 C0.02 8.64, 0.01 4.95, 0 0 M0 0 C0 0, 0 0, 0 0 M0 0 C0 0, 0 0, 0 0" stroke="#000" stroke-width="2" fill="none"></path></g></g><mask></mask><g stroke-linecap="round"><g transform="translate(381.4987205898706 673.2254604995951) rotate(0 7.040937546110854 11.492780070298522)"><path d="M0 0 C4.56 1.83, 9.13 3.66, 14.08 5.64 M0 0 C3.82 1.53, 7.64 3.06, 14.08 5.64 M14.08 5.64 C14.06 11.05, 14.04 16.47, 14.02 22.99 M14.08 5.64 C14.06 11.51, 14.04 17.38, 14.02 22.99" stroke="#000000" stroke-width="2" fill="none"></path></g></g><mask></mask><g stroke-linecap="round"><g transform="translate(395.5368947104862 678.7921781971536) rotate(0 6.968669893097058 -2.7100382917601564)"><path d="M0 0 C4.13 -1.61, 8.26 -3.21, 13.94 -5.42 M0 0 C4.3 -1.67, 8.61 -3.35, 13.94 -5.42" stroke="#000000" stroke-width="2" fill="none"></path></g></g><mask></mask><g stroke-linecap="round"><g transform="translate(388.865990382923 706.7584752832436) rotate(0 -6.263092272848326 1.8307533330344086)" fill-rule="evenodd"><path d="M0 0 L-0.01 -2.17 L-6.36 -4.43 L-12.5 -2.19 L-12.54 5.29 L-6.3 8.1 L0.01 5.31 L0 0" stroke="none" stroke-width="0" fill="#ff00" fill-rule="evenodd"></path><path d="M0 0 C0 -0.67, 0 -1.34, -0.01 -2.17 M0 0 C0 -0.51, 0 -1.02, -0.01 -2.17 M-0.01 -2.17 C-2.52 -3.06, -5.04 -3.96, -6.36 -4.43 M-0.01 -2.17 C-1.85 -2.82, -3.69 -3.48, -6.36 -4.43 M-6.36 -4.43 C-8.02 -3.83, -9.69 -3.22, -12.5 -2.19 M-6.36 -4.43 C-7.98 -3.84, -9.6 -3.25, -12.5 -2.19 M-12.5 -2.19 C-12.51 -0.05, -12.52 2.09, -12.54 5.29 M-12.5 -2.19 C-12.51 0.25, -12.52 2.7, -12.54 5.29 M-12.54 5.29 C-10.33 6.28, -8.13 7.27, -6.3 8.1 M-12.54 5.29 C-10.93 6.01, -9.32 6.74, -6.3 8.1 M-6.3 8.1 C-4.71 7.39, -3.12 6.69, 0.01 5.31 M-6.3 8.1 C-4.77 7.42, -3.23 6.74, 0.01 5.31 M0.01 5.31 C0.01 3.54, 0 1.76, 0 0 M0.01 5.31 C0.01 3.91, 0.01 2.5, 0 0 M0 0 C0 0, 0 0, 0 0 M0 0 C0 0, 0 0, 0 0" stroke="#000" stroke-width="2" fill="none"></path></g></g><mask></mask><g stroke-linecap="round"><g transform="translate(376.5509485442508 704.6872600519118) rotate(0 3.0353946716336395 4.95461338197947)"><path d="M0 0 C2.25 0.9, 4.49 1.8, 6.07 2.43 M0 0 C1.73 0.69, 3.46 1.39, 6.07 2.43 M6.07 2.43 C6.06 4.78, 6.05 7.12, 6.04 9.91 M6.07 2.43 C6.06 4.51, 6.06 6.59, 6.04 9.91" stroke="#000000" stroke-width="2" fill="none"></path></g></g><mask></mask><g stroke-linecap="round"><g transform="translate(382.6028981100744 707.0871088116846) rotate(0 3.004239609193064 -1.1683154035749794)"><path d="M0 0 C1.86 -0.72, 3.71 -1.44, 6.01 -2.34 M0 0 C2.05 -0.8, 4.09 -1.59, 6.01 -2.34" stroke="#000000" stroke-width="2" fill="none"></path></g></g><mask></mask><g stroke-linecap="round"><g transform="translate(402.00313093966724 713.7778951770188) rotate(0 -6.263092272848553 1.8307533330344086)" fill-rule="evenodd"><path d="M0 0 L-0.01 -2.17 L-6.36 -4.43 L-12.5 -2.19 L-12.54 5.29 L-6.3 8.1 L0.01 5.31 L0 0" stroke="none" stroke-width="0" fill="#ff00" fill-rule="evenodd"></path><path d="M0 0 C0 -0.51, 0 -1.02, -0.01 -2.17 M0 0 C0 -0.82, 0 -1.64, -0.01 -2.17 M-0.01 -2.17 C-1.82 -2.81, -3.64 -3.46, -6.36 -4.43 M-0.01 -2.17 C-1.77 -2.79, -3.53 -3.42, -6.36 -4.43 M-6.36 -4.43 C-7.98 -3.84, -9.6 -3.25, -12.5 -2.19 M-6.36 -4.43 C-7.89 -3.88, -9.42 -3.32, -12.5 -2.19 M-12.5 -2.19 C-12.51 0.01, -12.52 2.22, -12.54 5.29 M-12.5 -2.19 C-12.51 -0.34, -12.52 1.52, -12.54 5.29 M-12.54 5.29 C-10.07 6.4, -7.61 7.51, -6.3 8.1 M-12.54 5.29 C-11.24 5.87, -9.95 6.46, -6.3 8.1 M-6.3 8.1 C-3.89 7.03, -1.48 5.97, 0.01 5.31 M-6.3 8.1 C-4.81 7.44, -3.32 6.78, 0.01 5.31 M0.01 5.31 C0.01 3.32, 0 1.32, 0 0 M0.01 5.31 C0.01 4.21, 0.01 3.11, 0 0 M0 0 C0 0, 0 0, 0 0 M0 0 C0 0, 0 0, 0 0" stroke="#000" stroke-width="2" fill="none"></path></g></g><mask></mask><g stroke-linecap="round"><g transform="translate(389.68808910099324 711.7066799456834) rotate(0 3.0353946716336395 4.95461338197947)"><path d="M0 0 C2.27 0.91, 4.55 1.82, 6.07 2.43 M0 0 C2 0.8, 4 1.6, 6.07 2.43 M6.07 2.43 C6.06 4.38, 6.06 6.33, 6.04 9.91 M6.07 2.43 C6.06 4.8, 6.05 7.17, 6.04 9.91" stroke="#000000" stroke-width="2" fill="none"></path></g></g><mask></mask><g stroke-linecap="round"><g transform="translate(395.7400386668214 714.106528705458) rotate(0 3.004239609193064 -1.1683154035749794)"><path d="M0 0 C1.88 -0.73, 3.75 -1.46, 6.01 -2.34 M0 0 C2.03 -0.79, 4.07 -1.58, 6.01 -2.34" stroke="#000000" stroke-width="2" fill="none"></path></g></g><mask></mask><g stroke-linecap="round"><g transform="translate(414.64253076512614 705.9246269709047) rotate(0 -6.263092272848553 1.8307533330344086)" fill-rule="evenodd"><path d="M0 0 L-0.01 -2.17 L-6.36 -4.43 L-12.5 -2.19 L-12.54 5.29 L-6.3 8.1 L0.01 5.31 L0 0" stroke="none" stroke-width="0" fill="#ff00" fill-rule="evenodd"></path><path d="M0 0 C0 -0.52, 0 -1.04, -0.01 -2.17 M0 0 C0 -0.46, 0 -0.93, -0.01 -2.17 M-0.01 -2.17 C-2.07 -2.9, -4.14 -3.64, -6.36 -4.43 M-0.01 -2.17 C-1.9 -2.84, -3.79 -3.52, -6.36 -4.43 M-6.36 -4.43 C-8.77 -3.55, -11.18 -2.67, -12.5 -2.19 M-6.36 -4.43 C-8.75 -3.56, -11.14 -2.69, -12.5 -2.19 M-12.5 -2.19 C-12.51 0.78, -12.53 3.75, -12.54 5.29 M-12.5 -2.19 C-12.51 -0.16, -12.52 1.87, -12.54 5.29 M-12.54 5.29 C-10.56 6.18, -8.58 7.07, -6.3 8.1 M-12.54 5.29 C-10.82 6.06, -9.1 6.84, -6.3 8.1 M-6.3 8.1 C-4.63 7.36, -2.97 6.63, 0.01 5.31 M-6.3 8.1 C-4.56 7.33, -2.83 6.56, 0.01 5.31 M0.01 5.31 C0.01 3.29, 0 1.27, 0 0 M0.01 5.31 C0.01 3.83, 0.01 2.34, 0 0 M0 0 C0 0, 0 0, 0 0 M0 0 C0 0, 0 0, 0 0" stroke="#000" stroke-width="2" fill="none"></path></g></g><mask></mask><g stroke-linecap="round"><g transform="translate(402.3274889264494 703.8534117395711) rotate(0 3.0353946716336395 4.95461338197947)"><path d="M0 0 C2.4 0.96, 4.8 1.92, 6.07 2.43 M0 0 C1.76 0.7, 3.52 1.41, 6.07 2.43 M6.07 2.43 C6.06 4.46, 6.06 6.48, 6.04 9.91 M6.07 2.43 C6.06 4.4, 6.06 6.38, 6.04 9.91" stroke="#000000" stroke-width="2" fill="none"></path></g></g><mask></mask><g stroke-linecap="round"><g transform="translate(408.3794384922794 706.2532604993403) rotate(0 3.004239609193064 -1.1683154035749794)"><path d="M0 0 C1.88 -0.73, 3.77 -1.46, 6.01 -2.34 M0 0 C1.67 -0.65, 3.34 -1.3, 6.01 -2.34" stroke="#000000" stroke-width="2" fill="none"></path></g></g><mask></mask><g stroke-linecap="round"><g transform="translate(377.90267178880003 699.7853813842894) rotate(178.33979303936556 17.338548670725686 -8.18684442950007)"><path d="M0 0 C-0.62 -0.36, -2.66 -1.12, -3.74 -2.14 C-4.83 -3.16, -6.37 -4.65, -6.52 -6.13 C-6.66 -7.6, -5.97 -9.61, -4.61 -10.98 C-3.25 -12.36, -0.8 -13.5, 1.63 -14.37 C4.06 -15.24, 7.05 -15.79, 9.95 -16.2 C12.86 -16.6, 15.99 -16.86, 19.06 -16.78 C22.13 -16.7, 25.63 -16.28, 28.39 -15.71 C31.14 -15.15, 33.66 -14.36, 35.59 -13.41 C37.52 -12.46, 39.02 -11.32, 39.96 -10.04 C40.89 -8.76, 41.49 -7.11, 41.19 -5.74 C40.9 -4.38, 39.47 -2.89, 38.2 -1.86 C36.93 -0.84, 34.36 0.03, 33.59 0.41 M0 0 C-0.62 -0.36, -2.66 -1.12, -3.74 -2.14 C-4.83 -3.16, -6.37 -4.65, -6.52 -6.13 C-6.66 -7.6, -5.97 -9.61, -4.61 -10.98 C-3.25 -12.36, -0.8 -13.5, 1.63 -14.37 C4.06 -15.24, 7.05 -15.79, 9.95 -16.2 C12.86 -16.6, 15.99 -16.86, 19.06 -16.78 C22.13 -16.7, 25.63 -16.28, 28.39 -15.71 C31.14 -15.15, 33.66 -14.36, 35.59 -13.41 C37.52 -12.46, 39.02 -11.32, 39.96 -10.04 C40.89 -8.76, 41.49 -7.11, 41.19 -5.74 C40.9 -4.38, 39.47 -2.89, 38.2 -1.86 C36.93 -0.84, 34.36 0.03, 33.59 0.41" stroke="#000000" stroke-width="2" fill="none"></path></g></g><mask></mask><g transform="translate(355.0304641723633 731.0863901545335) rotate(0 39.50995635986328 12)"><text x="0" y="0" font-family="Virgil, Segoe UI Emoji" font-size="20px" fill="#000000" text-anchor="start" style="white-space: pre;" direction="ltr" dominant-baseline="text-before-edge">Fargate</text></g><g stroke-linecap="round" transform="translate(568.5404205322266 450.8687744140625) rotate(0 132 184)"><path d="M-3.11 -0.4 L267.61 3 L262.35 369.02 L3.09 369.69" stroke="none" stroke-width="0" fill="#ffec99"></path><path d="M0.42 2.92 C105.88 2.22, 203.69 5.07, 262.5 -0.76 M264.59 1.7 C269.91 130.01, 267.98 259.43, 263.93 366.65 M262.17 366.13 C196.48 371.64, 125.05 366.49, -1.33 371.08 M-1.58 366.46 C-3.8 262.21, -4.88 155.68, 1.19 -1.72" stroke="#1971c2" stroke-width="1.5" fill="none" stroke-dasharray="8 9"></path></g><g stroke-linecap="round"><g transform="translate(707.5156680569794 495.7068814233271) rotate(0 2.5594059405941607 26.059405940593933)"><path d="M0 0 C0 4.02, 0 8.04, 0 10.7 M0 0 C0 4.18, 0 8.36, 0 10.7 M0 10.7 C-2.47 12.17, -4.95 13.63, -10.24 16.75 M0 10.7 C-4.07 13.11, -8.13 15.51, -10.24 16.75 M-10.24 16.75 C-10.24 23.14, -10.24 29.52, -10.24 33.97 M-10.24 16.75 C-10.24 22.57, -10.24 28.39, -10.24 33.97 M-10.24 33.97 C-5.61 36.56, -0.99 39.15, 1.4 40.49 M-10.24 33.97 C-7.9 35.28, -5.55 36.59, 1.4 40.49 M1.4 40.49 C5.04 38.78, 8.69 37.08, 15.36 33.97 M1.4 40.49 C6.18 38.25, 10.97 36.02, 15.36 33.97 M15.36 33.97 C18.56 35.72, 21.77 37.47, 25.59 39.55 M15.36 33.97 C18.21 35.53, 21.07 37.09, 25.59 39.55 M25.59 39.55 C20.54 42.34, 15.49 45.12, 2.79 52.12 M25.59 39.55 C19.2 43.08, 12.81 46.6, 2.79 52.12 M2.79 52.12 C-3.67 48.63, -10.13 45.14, -20.48 39.55 M2.79 52.12 C-5.72 47.52, -14.24 42.92, -20.48 39.55 M-20.48 39.55 C-20.48 31.22, -20.48 22.89, -20.48 12.1 M-20.48 39.55 C-20.48 31.4, -20.48 23.25, -20.48 12.1 M-20.48 12.1 C-13.17 7.78, -5.86 3.46, 0 0 M-20.48 12.1 C-12.9 7.62, -5.32 3.14, 0 0" stroke="#000000" stroke-width="2" fill="none"></path></g></g><mask></mask><g stroke-linecap="round"><g transform="translate(712.6344799381673 494.77618835402154) rotate(0 10.702970297029651 17.915841584158443)"><path d="M0 0 C0 3.21, 0 6.43, 0 11.63 M0 0 C0 3.87, 0 7.74, 0 11.63 M0 11.63 C4.29 14.21, 8.58 16.78, 11.63 18.61 M0 11.63 C2.88 13.36, 5.76 15.09, 11.63 18.61 M11.63 18.61 C11.63 21.95, 11.63 25.28, 11.63 31.18 M11.63 18.61 C11.63 22.84, 11.63 27.07, 11.63 31.18 M11.63 31.18 C13.72 32.22, 15.81 33.27, 20.94 35.83 M11.63 31.18 C13.64 32.18, 15.65 33.19, 20.94 35.83 M20.94 35.83 C21.06 29.89, 21.18 23.95, 21.41 12.56 M20.94 35.83 C21.09 28.24, 21.24 20.65, 21.41 12.56 M21.41 12.56 C16.68 9.79, 11.96 7.02, 0 0 M21.41 12.56 C14.46 8.49, 7.51 4.41, 0 0" stroke="#000000" stroke-width="2" fill="none"></path></g></g><mask></mask><g stroke-linecap="round" transform="translate(678.6455453518306 489.43660799885856) rotate(0 31.89487518039664 31.86433283040742)"><path d="M0 0 C0 0, 0 0, 0 0 M0 0 C0 0, 0 0, 0 0 M0.13 12.04 C2.51 9.31, 4.89 6.57, 10.63 -0.03 M0.13 12.04 C2.35 9.49, 4.57 6.94, 10.63 -0.03 M0.27 24.08 C4.99 18.65, 9.7 13.22, 21.26 -0.07 M0.27 24.08 C7.17 16.15, 14.06 8.21, 21.26 -0.07 M-0.26 36.88 C8.26 27.08, 16.78 17.28, 31.89 -0.1 M-0.26 36.88 C7.8 27.6, 15.86 18.33, 31.89 -0.1 M-0.12 48.92 C11.05 36.07, 22.22 23.22, 42.52 -0.14 M-0.12 48.92 C10.6 36.58, 21.33 24.24, 42.52 -0.14 M0.01 60.96 C13.54 45.4, 27.06 29.84, 53.15 -0.17 M0.01 60.96 C13.46 45.48, 26.92 30, 53.15 -0.17 M8.02 63.94 C25.37 43.98, 42.73 24.01, 63.78 -0.21 M8.02 63.94 C20.27 49.84, 32.53 35.74, 63.78 -0.21 M18.65 63.91 C29.52 51.4, 40.4 38.89, 64.57 11.08 M18.65 63.91 C34.78 45.35, 50.92 26.78, 64.57 11.08 M29.28 63.87 C39.13 52.53, 48.99 41.19, 64.7 23.12 M29.28 63.87 C39.1 52.58, 48.91 41.28, 64.7 23.12 M39.91 63.84 C45.52 57.38, 51.14 50.92, 64.18 35.92 M39.91 63.84 C45.97 56.86, 52.04 49.88, 64.18 35.92 M50.54 63.81 C55.31 58.31, 60.09 52.82, 64.31 47.96 M50.54 63.81 C55.21 58.43, 59.88 53.06, 64.31 47.96 M61.17 63.77 C61.94 62.88, 62.71 61.99, 64.45 60 M61.17 63.77 C61.9 62.92, 62.64 62.07, 64.45 60 M0.14 63.85 C0.14 63.85, 0.14 63.85, 0.14 63.85 M0.14 63.85 C0.14 63.85, 0.14 63.85, 0.14 63.85 M12.18 63.72 C9.46 61.35, 6.73 58.98, 0.11 53.22 M12.18 63.72 C8.25 60.3, 4.31 56.88, 0.11 53.22 M24.23 63.59 C16.68 57.03, 9.14 50.47, 0.07 42.59 M24.23 63.59 C17.01 57.32, 9.8 51.05, 0.07 42.59 M36.27 63.45 C23.37 52.24, 10.48 41.03, 0.04 31.96 M36.27 63.45 C22.79 51.74, 9.31 40.02, 0.04 31.96 M49.06 63.98 C31.02 48.29, 12.97 32.61, 0.01 21.33 M49.06 63.98 C30.1 47.49, 11.13 31.01, 0.01 21.33 M61.1 63.84 C39.23 44.83, 17.36 25.82, -0.03 10.7 M61.1 63.84 C39.35 44.94, 17.6 26.03, -0.03 10.7 M64.09 55.84 C48.67 42.43, 33.25 29.03, -0.06 0.07 M64.09 55.84 C47.39 41.32, 30.69 26.81, -0.06 0.07 M64.05 45.21 C46.01 29.52, 27.97 13.84, 11.22 -0.72 M64.05 45.21 C51.31 34.13, 38.56 23.05, 11.22 -0.72 M64.02 34.58 C51.61 23.8, 39.21 13.01, 23.26 -0.85 M64.02 34.58 C47.94 20.6, 31.86 6.62, 23.26 -0.85 M63.98 23.95 C52.64 14.08, 41.29 4.22, 35.3 -0.98 M63.98 23.95 C53.54 14.87, 43.09 5.79, 35.3 -0.98 M63.95 13.32 C60.59 10.4, 57.23 7.47, 48.1 -0.46 M63.95 13.32 C58.62 8.68, 53.29 4.05, 48.1 -0.46 M63.91 2.69 C62.46 1.42, 61 0.15, 60.14 -0.59 M63.91 2.69 C63.04 1.92, 62.16 1.16, 60.14 -0.59" stroke="#fd7e1488" stroke-width="1" fill="none"></path><path d="M0 0 C19.33 0, 38.66 0, 63.79 0 M0 0 C17.41 0, 34.82 0, 63.79 0 M63.79 0 C63.79 20.91, 63.79 41.82, 63.79 63.73 M63.79 0 C63.79 22.26, 63.79 44.53, 63.79 63.73 M63.79 63.73 C41.11 63.73, 18.43 63.73, 0 63.73 M63.79 63.73 C50.82 63.73, 37.85 63.73, 0 63.73 M0 63.73 C0 46.14, 0 28.55, 0 0 M0 63.73 C0 39.91, 0 16.09, 0 0" stroke="#000000" stroke-width="2" fill="none"></path></g><g transform="translate(691.2804412841801 556.3009408292664) rotate(0 19.259979248046875 12)"><text x="19.259979248046875" y="0" font-family="Virgil, Segoe UI Emoji" font-size="20px" fill="#000000" text-anchor="middle" style="white-space: pre;" direction="ltr" dominant-baseline="text-before-edge">ECS</text></g><g stroke-linecap="round" transform="translate(602.7998651017015 667.1511586735915) rotate(0 32.230576182478444 32.199712367129905)"><path d="M0 0 C0 0, 0 0, 0 0 M0 0 C0 0, 0 0, 0 0 M0.13 12.04 C3.96 7.64, 7.78 3.24, 10.63 -0.03 M0.13 12.04 C2.36 9.48, 4.59 6.92, 10.63 -0.03 M0.27 24.08 C7.33 15.96, 14.39 7.84, 21.26 -0.07 M0.27 24.08 C8.38 14.75, 16.5 5.41, 21.26 -0.07 M-0.26 36.88 C7.22 28.28, 14.7 19.67, 31.89 -0.1 M-0.26 36.88 C9.2 26, 18.66 15.12, 31.89 -0.1 M-0.12 48.92 C12.85 33.99, 25.83 19.07, 42.52 -0.14 M-0.12 48.92 C15.18 31.31, 30.48 13.71, 42.52 -0.14 M0.01 60.96 C17.33 41.04, 34.64 21.12, 53.15 -0.17 M0.01 60.96 C19.1 39, 38.19 17.03, 53.15 -0.17 M7.36 64.7 C29.3 39.46, 51.25 14.21, 63.78 -0.21 M7.36 64.7 C26.27 42.94, 45.19 21.18, 63.78 -0.21 M17.99 64.66 C31.76 48.82, 45.53 32.98, 64.57 11.08 M17.99 64.66 C31.69 48.91, 45.38 33.15, 64.57 11.08 M28.62 64.63 C41.35 49.99, 54.08 35.34, 64.7 23.12 M28.62 64.63 C40.04 51.49, 51.46 38.35, 64.7 23.12 M39.25 64.59 C48.59 53.84, 57.94 43.09, 64.84 35.16 M39.25 64.59 C45.99 56.84, 52.73 49.08, 64.84 35.16 M49.88 64.56 C53.35 60.57, 56.82 56.57, 64.97 47.2 M49.88 64.56 C54.13 59.67, 58.38 54.78, 64.97 47.2 M60.51 64.53 C61.81 63.03, 63.11 61.54, 64.45 60 M60.51 64.53 C61.73 63.12, 62.95 61.71, 64.45 60 M-0.19 64.24 C-0.19 64.24, -0.19 64.24, -0.19 64.24 M-0.19 64.24 C-0.19 64.24, -0.19 64.24, -0.19 64.24 M11.85 64.1 C7.54 60.36, 3.23 56.61, -0.22 53.61 M11.85 64.1 C7.55 60.36, 3.25 56.62, -0.22 53.61 M24.65 64.63 C19.12 59.82, 13.59 55.01, -0.26 42.98 M24.65 64.63 C15.43 56.61, 6.21 48.6, -0.26 42.98 M36.69 64.49 C22.44 52.11, 8.2 39.72, -0.29 32.35 M36.69 64.49 C29.28 58.05, 21.87 51.61, -0.29 32.35 M48.73 64.36 C30.85 48.81, 12.97 33.27, -0.33 21.72 M48.73 64.36 C31.96 49.78, 15.19 35.2, -0.33 21.72 M60.77 64.23 C40.86 46.92, 20.95 29.61, -0.36 11.09 M60.77 64.23 C41.23 47.24, 21.69 30.25, -0.36 11.09 M65.26 57.53 C47.31 41.92, 29.35 26.32, 0.36 1.11 M65.26 57.53 C39.65 35.27, 14.05 13.01, 0.36 1.11 M65.23 46.9 C51.05 34.57, 36.86 22.24, 10.89 -0.33 M65.23 46.9 C50.56 34.15, 35.89 21.4, 10.89 -0.33 M65.2 36.27 C50.32 23.34, 35.44 10.41, 22.93 -0.47 M65.2 36.27 C48.38 21.66, 31.57 7.04, 22.93 -0.47 M65.16 25.64 C57.74 19.19, 50.31 12.73, 34.97 -0.6 M65.16 25.64 C56.56 18.17, 47.96 10.69, 34.97 -0.6 M65.13 15.01 C60.68 11.15, 56.23 7.28, 47.77 -0.08 M65.13 15.01 C58.2 8.99, 51.27 2.96, 47.77 -0.08 M65.09 4.38 C63.47 2.97, 61.85 1.56, 59.81 -0.21 M65.09 4.38 C63.63 3.11, 62.17 1.85, 59.81 -0.21" stroke="#fd7e1488" stroke-width="1" fill="none"></path><path d="M0 0 C24.92 0, 49.84 0, 64.46 0 M0 0 C23.06 0, 46.12 0, 64.46 0 M64.46 0 C64.46 22.91, 64.46 45.83, 64.46 64.4 M64.46 0 C64.46 15.48, 64.46 30.96, 64.46 64.4 M64.46 64.4 C47.68 64.4, 30.91 64.4, 0 64.4 M64.46 64.4 C42.45 64.4, 20.43 64.4, 0 64.4 M0 64.4 C0 48.86, 0 33.33, 0 0 M0 64.4 C0 44.8, 0 25.2, 0 0" stroke="#000000" stroke-width="2" fill="none"></path></g><g stroke-linecap="round"><g transform="translate(650.0648150748784 682.5298759598509) rotate(0 -14.52794325257264 4.246637183852272)" fill-rule="evenodd"><path d="M0 0 L-0.01 -5.02 L-14.76 -10.29 L-28.99 -5.08 L-29.08 12.27 L-14.61 18.78 L0.03 12.33 L0 0" stroke="none" stroke-width="0" fill="#ff00" fill-rule="evenodd"></path><path d="M0 0 C0 -1.3, -0.01 -2.61, -0.01 -5.02 M0 0 C0 -1.77, -0.01 -3.53, -0.01 -5.02 M-0.01 -5.02 C-3.06 -6.11, -6.1 -7.2, -14.76 -10.29 M-0.01 -5.02 C-3.73 -6.35, -7.44 -7.67, -14.76 -10.29 M-14.76 -10.29 C-17.84 -9.16, -20.92 -8.03, -28.99 -5.08 M-14.76 -10.29 C-19.63 -8.5, -24.5 -6.72, -28.99 -5.08 M-28.99 -5.08 C-29.03 1.37, -29.06 7.82, -29.08 12.27 M-28.99 -5.08 C-29.01 -1.24, -29.03 2.61, -29.08 12.27 M-29.08 12.27 C-23.81 14.64, -18.53 17.02, -14.61 18.78 M-29.08 12.27 C-23.92 14.59, -18.76 16.91, -14.61 18.78 M-14.61 18.78 C-10.32 16.89, -6.04 15, 0.03 12.33 M-14.61 18.78 C-8.93 16.28, -3.26 13.77, 0.03 12.33 M0.03 12.33 C0.02 9.22, 0.01 6.12, 0 0 M0.03 12.33 C0.02 9.43, 0.02 6.53, 0 0 M0 0 C0 0, 0 0, 0 0 M0 0 C0 0, 0 0, 0 0" stroke="#000" stroke-width="2" fill="none"></path></g></g><mask></mask><g stroke-linecap="round"><g transform="translate(621.498697701687 677.7254604995951) rotate(0 7.040937546110854 11.492780070298522)"><path d="M0 0 C3.81 1.52, 7.61 3.05, 14.08 5.64 M0 0 C5.46 2.18, 10.91 4.37, 14.08 5.64 M14.08 5.64 C14.06 10.76, 14.04 15.87, 14.02 22.99 M14.08 5.64 C14.06 12.22, 14.03 18.79, 14.02 22.99" stroke="#000000" stroke-width="2" fill="none"></path></g></g><mask></mask><g stroke-linecap="round"><g transform="translate(635.5368718223026 683.2921781971536) rotate(0 6.968669893097058 -2.7100382917601564)"><path d="M0 0 C3.99 -1.55, 7.97 -3.1, 13.94 -5.42 M0 0 C4.83 -1.88, 9.66 -3.75, 13.94 -5.42" stroke="#000000" stroke-width="2" fill="none"></path></g></g><mask></mask><g stroke-linecap="round"><g transform="translate(628.8659674947394 711.2584752832436) rotate(0 -6.263092272848326 1.8307533330344086)" fill-rule="evenodd"><path d="M0 0 L-0.01 -2.17 L-6.36 -4.43 L-12.5 -2.19 L-12.54 5.29 L-6.3 8.1 L0.01 5.31 L0 0" stroke="none" stroke-width="0" fill="#ff00" fill-rule="evenodd"></path><path d="M0 0 C0 -0.59, 0 -1.18, -0.01 -2.17 M0 0 C0 -0.63, 0 -1.25, -0.01 -2.17 M-0.01 -2.17 C-1.41 -2.67, -2.82 -3.17, -6.36 -4.43 M-0.01 -2.17 C-1.93 -2.85, -3.85 -3.54, -6.36 -4.43 M-6.36 -4.43 C-8.51 -3.65, -10.65 -2.87, -12.5 -2.19 M-6.36 -4.43 C-7.93 -3.86, -9.51 -3.28, -12.5 -2.19 M-12.5 -2.19 C-12.51 0.23, -12.52 2.66, -12.54 5.29 M-12.5 -2.19 C-12.51 -0.29, -12.52 1.62, -12.54 5.29 M-12.54 5.29 C-10.1 6.39, -7.66 7.49, -6.3 8.1 M-12.54 5.29 C-11.29 5.85, -10.03 6.42, -6.3 8.1 M-6.3 8.1 C-3.96 7.06, -1.61 6.03, 0.01 5.31 M-6.3 8.1 C-4.38 7.25, -2.47 6.41, 0.01 5.31 M0.01 5.31 C0.01 3.98, 0.01 2.65, 0 0 M0.01 5.31 C0.01 3.28, 0 1.25, 0 0 M0 0 C0 0, 0 0, 0 0 M0 0 C0 0, 0 0, 0 0" stroke="#000" stroke-width="2" fill="none"></path></g></g><mask></mask><g stroke-linecap="round"><g transform="translate(616.5509256560672 709.1872600519118) rotate(0 3.0353946716336395 4.95461338197947)"><path d="M0 0 C2.11 0.84, 4.22 1.69, 6.07 2.43 M0 0 C1.82 0.73, 3.63 1.45, 6.07 2.43 M6.07 2.43 C6.06 4.39, 6.06 6.35, 6.04 9.91 M6.07 2.43 C6.06 4.81, 6.05 7.19, 6.04 9.91" stroke="#000000" stroke-width="2" fill="none"></path></g></g><mask></mask><g stroke-linecap="round"><g transform="translate(622.6028752218908 711.5871088116846) rotate(0 3.004239609193064 -1.1683154035749794)"><path d="M0 0 C1.46 -0.57, 2.92 -1.14, 6.01 -2.34 M0 0 C1.97 -0.77, 3.95 -1.54, 6.01 -2.34" stroke="#000000" stroke-width="2" fill="none"></path></g></g><mask></mask><g stroke-linecap="round"><g transform="translate(642.0031080514837 718.2778951770188) rotate(0 -6.263092272848553 1.8307533330344086)" fill-rule="evenodd"><path d="M0 0 L-0.01 -2.17 L-6.36 -4.43 L-12.5 -2.19 L-12.54 5.29 L-6.3 8.1 L0.01 5.31 L0 0" stroke="none" stroke-width="0" fill="#ff00" fill-rule="evenodd"></path><path d="M0 0 C0 -0.77, 0 -1.54, -0.01 -2.17 M0 0 C0 -0.52, 0 -1.04, -0.01 -2.17 M-0.01 -2.17 C-1.66 -2.76, -3.32 -3.35, -6.36 -4.43 M-0.01 -2.17 C-2.18 -2.94, -4.35 -3.72, -6.36 -4.43 M-6.36 -4.43 C-7.84 -3.89, -9.32 -3.35, -12.5 -2.19 M-6.36 -4.43 C-8.23 -3.75, -10.1 -3.07, -12.5 -2.19 M-12.5 -2.19 C-12.51 0.76, -12.53 3.71, -12.54 5.29 M-12.5 -2.19 C-12.51 0.77, -12.53 3.73, -12.54 5.29 M-12.54 5.29 C-10.27 6.31, -7.99 7.33, -6.3 8.1 M-12.54 5.29 C-11.21 5.89, -9.89 6.48, -6.3 8.1 M-6.3 8.1 C-4.18 7.16, -2.05 6.22, 0.01 5.31 M-6.3 8.1 C-3.86 7.02, -1.42 5.95, 0.01 5.31 M0.01 5.31 C0.01 4.08, 0.01 2.84, 0 0 M0.01 5.31 C0.01 3.75, 0.01 2.19, 0 0 M0 0 C0 0, 0 0, 0 0 M0 0 C0 0, 0 0, 0 0" stroke="#000" stroke-width="2" fill="none"></path></g></g><mask></mask><g stroke-linecap="round"><g transform="translate(629.6880662128096 716.2066799456834) rotate(0 3.0353946716336395 4.95461338197947)"><path d="M0 0 C1.25 0.5, 2.51 1, 6.07 2.43 M0 0 C1.53 0.61, 3.06 1.22, 6.07 2.43 M6.07 2.43 C6.06 4.05, 6.06 5.67, 6.04 9.91 M6.07 2.43 C6.06 4.99, 6.05 7.55, 6.04 9.91" stroke="#000000" stroke-width="2" fill="none"></path></g></g><mask></mask><g stroke-linecap="round"><g transform="translate(635.7400157786378 718.606528705458) rotate(0 3.004239609193064 -1.1683154035749794)"><path d="M0 0 C1.77 -0.69, 3.55 -1.38, 6.01 -2.34 M0 0 C2.28 -0.89, 4.56 -1.77, 6.01 -2.34" stroke="#000000" stroke-width="2" fill="none"></path></g></g><mask></mask><g stroke-linecap="round"><g transform="translate(654.6425078769425 710.4246269709047) rotate(0 -6.263092272848553 1.8307533330344086)" fill-rule="evenodd"><path d="M0 0 L-0.01 -2.17 L-6.36 -4.43 L-12.5 -2.19 L-12.54 5.29 L-6.3 8.1 L0.01 5.31 L0 0" stroke="none" stroke-width="0" fill="#ff00" fill-rule="evenodd"></path><path d="M0 0 C0 -0.77, 0 -1.55, -0.01 -2.17 M0 0 C0 -0.61, 0 -1.22, -0.01 -2.17 M-0.01 -2.17 C-2.28 -2.98, -4.55 -3.79, -6.36 -4.43 M-0.01 -2.17 C-2.06 -2.9, -4.11 -3.63, -6.36 -4.43 M-6.36 -4.43 C-8.39 -3.69, -10.42 -2.95, -12.5 -2.19 M-6.36 -4.43 C-7.6 -3.98, -8.83 -3.53, -12.5 -2.19 M-12.5 -2.19 C-12.51 -0.35, -12.52 1.49, -12.54 5.29 M-12.5 -2.19 C-12.51 -0.68, -12.51 0.83, -12.54 5.29 M-12.54 5.29 C-10.11 6.38, -7.69 7.47, -6.3 8.1 M-12.54 5.29 C-10.85 6.05, -9.17 6.81, -6.3 8.1 M-6.3 8.1 C-4.06 7.11, -1.82 6.12, 0.01 5.31 M-6.3 8.1 C-4.28 7.21, -2.26 6.32, 0.01 5.31 M0.01 5.31 C0.01 4.02, 0.01 2.72, 0 0 M0.01 5.31 C0.01 3.52, 0 1.72, 0 0 M0 0 C0 0, 0 0, 0 0 M0 0 C0 0, 0 0, 0 0" stroke="#000" stroke-width="2" fill="none"></path></g></g><mask></mask><g stroke-linecap="round"><g transform="translate(642.3274660382658 708.3534117395711) rotate(0 3.0353946716336395 4.95461338197947)"><path d="M0 0 C1.34 0.54, 2.68 1.07, 6.07 2.43 M0 0 C1.84 0.74, 3.67 1.47, 6.07 2.43 M6.07 2.43 C6.06 5.04, 6.05 7.65, 6.04 9.91 M6.07 2.43 C6.06 4.35, 6.06 6.26, 6.04 9.91" stroke="#000000" stroke-width="2" fill="none"></path></g></g><mask></mask><g stroke-linecap="round"><g transform="translate(648.3794156040958 710.7532604993403) rotate(0 3.004239609193064 -1.1683154035749794)"><path d="M0 0 C1.58 -0.61, 3.15 -1.23, 6.01 -2.34 M0 0 C1.91 -0.74, 3.82 -1.49, 6.01 -2.34" stroke="#000000" stroke-width="2" fill="none"></path></g></g><mask></mask><g stroke-linecap="round"><g transform="translate(617.9026489006164 704.2853813842894) rotate(178.33979303936556 17.338548670725686 -8.18684442950007)"><path d="M0 0 C-0.62 -0.36, -2.66 -1.12, -3.74 -2.14 C-4.83 -3.16, -6.37 -4.65, -6.52 -6.13 C-6.66 -7.6, -5.97 -9.61, -4.61 -10.98 C-3.25 -12.36, -0.8 -13.5, 1.63 -14.37 C4.06 -15.24, 7.05 -15.79, 9.95 -16.2 C12.86 -16.6, 15.99 -16.86, 19.06 -16.78 C22.13 -16.7, 25.63 -16.28, 28.39 -15.71 C31.14 -15.15, 33.66 -14.36, 35.59 -13.41 C37.52 -12.46, 39.02 -11.32, 39.96 -10.04 C40.89 -8.76, 41.49 -7.11, 41.19 -5.74 C40.9 -4.38, 39.47 -2.89, 38.2 -1.86 C36.93 -0.84, 34.36 0.03, 33.59 0.41 M0 0 C-0.62 -0.36, -2.66 -1.12, -3.74 -2.14 C-4.83 -3.16, -6.37 -4.65, -6.52 -6.13 C-6.66 -7.6, -5.97 -9.61, -4.61 -10.98 C-3.25 -12.36, -0.8 -13.5, 1.63 -14.37 C4.06 -15.24, 7.05 -15.79, 9.95 -16.2 C12.86 -16.6, 15.99 -16.86, 19.06 -16.78 C22.13 -16.7, 25.63 -16.28, 28.39 -15.71 C31.14 -15.15, 33.66 -14.36, 35.59 -13.41 C37.52 -12.46, 39.02 -11.32, 39.96 -10.04 C40.89 -8.76, 41.49 -7.11, 41.19 -5.74 C40.9 -4.38, 39.47 -2.89, 38.2 -1.86 C36.93 -0.84, 34.36 0.03, 33.59 0.41" stroke="#000000" stroke-width="2" fill="none"></path></g></g><mask></mask><g transform="translate(595.0304412841797 735.5863901545335) rotate(0 39.50995635986328 12)"><text x="0" y="0" font-family="Virgil, Segoe UI Emoji" font-size="20px" fill="#000000" text-anchor="start" style="white-space: pre;" direction="ltr" dominant-baseline="text-before-edge">Fargate</text></g><g stroke-linecap="round" transform="translate(730.7999108780687 666.1511586735915) rotate(0 32.230576182478444 32.199712367129905)"><path d="M0 0 C0 0, 0 0, 0 0 M0 0 C0 0, 0 0, 0 0 M0.13 12.04 C3.59 8.06, 7.05 4.08, 10.63 -0.03 M0.13 12.04 C2.28 9.57, 4.43 7.09, 10.63 -0.03 M0.27 24.08 C8.64 14.45, 17.01 4.82, 21.26 -0.07 M0.27 24.08 C6.47 16.94, 12.68 9.8, 21.26 -0.07 M-0.26 36.88 C9.8 25.31, 19.86 13.74, 31.89 -0.1 M-0.26 36.88 C9.54 25.61, 19.33 14.34, 31.89 -0.1 M-0.12 48.92 C12.56 34.32, 25.25 19.73, 42.52 -0.14 M-0.12 48.92 C14.13 32.53, 28.38 16.13, 42.52 -0.14 M0.01 60.96 C18.39 39.81, 36.77 18.67, 53.15 -0.17 M0.01 60.96 C15.81 42.78, 31.62 24.6, 53.15 -0.17 M7.36 64.7 C19.31 50.95, 31.27 37.19, 63.78 -0.21 M7.36 64.7 C20.06 50.09, 32.76 35.48, 63.78 -0.21 M17.99 64.66 C27.48 53.75, 36.97 42.83, 64.57 11.08 M17.99 64.66 C35.29 44.76, 52.59 24.86, 64.57 11.08 M28.62 64.63 C42.26 48.94, 55.89 33.26, 64.7 23.12 M28.62 64.63 C40.19 51.32, 51.76 38.01, 64.7 23.12 M39.25 64.59 C47.77 54.79, 56.29 44.99, 64.84 35.16 M39.25 64.59 C46.75 55.96, 54.25 47.34, 64.84 35.16 M49.88 64.56 C52.95 61.03, 56.01 57.5, 64.97 47.2 M49.88 64.56 C53.68 60.19, 57.47 55.83, 64.97 47.2 M60.51 64.53 C61.5 63.38, 62.5 62.24, 64.45 60 M60.51 64.53 C61.33 63.59, 62.14 62.65, 64.45 60 M-0.19 64.24 C-0.19 64.24, -0.19 64.24, -0.19 64.24 M-0.19 64.24 C-0.19 64.24, -0.19 64.24, -0.19 64.24 M11.85 64.1 C7.59 60.4, 3.33 56.7, -0.22 53.61 M11.85 64.1 C9 61.62, 6.14 59.14, -0.22 53.61 M24.65 64.63 C16.61 57.64, 8.58 50.66, -0.26 42.98 M24.65 64.63 C16.38 57.44, 8.12 50.26, -0.26 42.98 M36.69 64.49 C25.73 54.97, 14.77 45.44, -0.29 32.35 M36.69 64.49 C26.29 55.45, 15.88 46.41, -0.29 32.35 M48.73 64.36 C34.43 51.93, 20.13 39.5, -0.33 21.72 M48.73 64.36 C32.4 50.16, 16.07 35.97, -0.33 21.72 M60.77 64.23 C47.48 52.67, 34.18 41.12, -0.36 11.09 M60.77 64.23 C47.26 52.48, 33.74 40.73, -0.36 11.09 M65.26 57.53 C47.77 42.33, 30.28 27.12, 0.36 1.11 M65.26 57.53 C47.58 42.16, 29.89 26.78, 0.36 1.11 M65.23 46.9 C47.71 31.68, 30.2 16.45, 10.89 -0.33 M65.23 46.9 C48.24 32.13, 31.25 17.36, 10.89 -0.33 M65.2 36.27 C51.51 24.37, 37.82 12.47, 22.93 -0.47 M65.2 36.27 C49.48 22.61, 33.76 8.95, 22.93 -0.47 M65.16 25.64 C56.43 18.06, 47.71 10.47, 34.97 -0.6 M65.16 25.64 C53.34 15.37, 41.53 5.1, 34.97 -0.6 M65.13 15.01 C60.03 10.58, 54.93 6.15, 47.77 -0.08 M65.13 15.01 C59.39 10.03, 53.66 5.05, 47.77 -0.08 M65.09 4.38 C63.68 3.15, 62.26 1.92, 59.81 -0.21 M65.09 4.38 C63.66 3.14, 62.23 1.9, 59.81 -0.21" stroke="#fd7e1488" stroke-width="1" fill="none"></path><path d="M0 0 C13.95 0, 27.91 0, 64.46 0 M0 0 C22.05 0, 44.1 0, 64.46 0 M64.46 0 C64.46 23.93, 64.46 47.86, 64.46 64.4 M64.46 0 C64.46 14.26, 64.46 28.52, 64.46 64.4 M64.46 64.4 C40.96 64.4, 17.46 64.4, 0 64.4 M64.46 64.4 C41.47 64.4, 18.48 64.4, 0 64.4 M0 64.4 C0 45.54, 0 26.69, 0 0 M0 64.4 C0 39.42, 0 14.45, 0 0" stroke="#000000" stroke-width="2" fill="none"></path></g><g stroke-linecap="round"><g transform="translate(778.0648608512456 681.5298759598509) rotate(0 -14.52794325257264 4.246637183852272)" fill-rule="evenodd"><path d="M0 0 L-0.01 -5.02 L-14.76 -10.29 L-28.99 -5.08 L-29.08 12.27 L-14.61 18.78 L0.03 12.33 L0 0" stroke="none" stroke-width="0" fill="#ff00" fill-rule="evenodd"></path><path d="M0 0 C0 -1.32, -0.01 -2.63, -0.01 -5.02 M0 0 C0 -1.05, -0.01 -2.1, -0.01 -5.02 M-0.01 -5.02 C-4.25 -6.53, -8.48 -8.05, -14.76 -10.29 M-0.01 -5.02 C-3.53 -6.28, -7.05 -7.53, -14.76 -10.29 M-14.76 -10.29 C-19.81 -8.44, -24.87 -6.59, -28.99 -5.08 M-14.76 -10.29 C-19.61 -8.51, -24.45 -6.74, -28.99 -5.08 M-28.99 -5.08 C-29.02 0.29, -29.05 5.67, -29.08 12.27 M-28.99 -5.08 C-29.01 -1.53, -29.03 2.02, -29.08 12.27 M-29.08 12.27 C-25.47 13.9, -21.85 15.52, -14.61 18.78 M-29.08 12.27 C-25.54 13.87, -22 15.46, -14.61 18.78 M-14.61 18.78 C-9.88 16.69, -5.15 14.61, 0.03 12.33 M-14.61 18.78 C-10.15 16.81, -5.69 14.85, 0.03 12.33 M0.03 12.33 C0.02 8.4, 0.01 4.48, 0 0 M0.03 12.33 C0.02 7.84, 0.01 3.36, 0 0 M0 0 C0 0, 0 0, 0 0 M0 0 C0 0, 0 0, 0 0" stroke="#000" stroke-width="2" fill="none"></path></g></g><mask></mask><g stroke-linecap="round"><g transform="translate(749.4987434780542 676.7254604995951) rotate(0 7.040937546110854 11.492780070298522)"><path d="M0 0 C5.03 2.01, 10.06 4.03, 14.08 5.64 M0 0 C4.55 1.82, 9.09 3.64, 14.08 5.64 M14.08 5.64 C14.06 11.37, 14.04 17.11, 14.02 22.99 M14.08 5.64 C14.07 9.13, 14.06 12.62, 14.02 22.99" stroke="#000000" stroke-width="2" fill="none"></path></g></g><mask></mask><g stroke-linecap="round"><g transform="translate(763.5369175986698 682.2921781971536) rotate(0 6.968669893097058 -2.7100382917601564)"><path d="M0 0 C4.87 -1.89, 9.74 -3.79, 13.94 -5.42 M0 0 C3.57 -1.39, 7.14 -2.78, 13.94 -5.42" stroke="#000000" stroke-width="2" fill="none"></path></g></g><mask></mask><g stroke-linecap="round"><g transform="translate(756.8660132711066 710.2584752832436) rotate(0 -6.263092272848326 1.8307533330344086)" fill-rule="evenodd"><path d="M0 0 L-0.01 -2.17 L-6.36 -4.43 L-12.5 -2.19 L-12.54 5.29 L-6.3 8.1 L0.01 5.31 L0 0" stroke="none" stroke-width="0" fill="#ff00" fill-rule="evenodd"></path><path d="M0 0 C0 -0.49, 0 -0.98, -0.01 -2.17 M0 0 C0 -0.47, 0 -0.94, -0.01 -2.17 M-0.01 -2.17 C-1.43 -2.67, -2.86 -3.18, -6.36 -4.43 M-0.01 -2.17 C-1.81 -2.81, -3.62 -3.45, -6.36 -4.43 M-6.36 -4.43 C-8.04 -3.82, -9.72 -3.21, -12.5 -2.19 M-6.36 -4.43 C-7.87 -3.88, -9.37 -3.33, -12.5 -2.19 M-12.5 -2.19 C-12.51 -0.53, -12.52 1.13, -12.54 5.29 M-12.5 -2.19 C-12.51 0.64, -12.53 3.48, -12.54 5.29 M-12.54 5.29 C-10.41 6.25, -8.28 7.2, -6.3 8.1 M-12.54 5.29 C-11.19 5.9, -9.84 6.5, -6.3 8.1 M-6.3 8.1 C-4.28 7.21, -2.27 6.32, 0.01 5.31 M-6.3 8.1 C-4.72 7.4, -3.15 6.71, 0.01 5.31 M0.01 5.31 C0.01 3.95, 0.01 2.59, 0 0 M0.01 5.31 C0.01 4.03, 0.01 2.76, 0 0 M0 0 C0 0, 0 0, 0 0 M0 0 C0 0, 0 0, 0 0" stroke="#000" stroke-width="2" fill="none"></path></g></g><mask></mask><g stroke-linecap="round"><g transform="translate(744.5509714324344 708.1872600519118) rotate(0 3.0353946716336395 4.95461338197947)"><path d="M0 0 C2.29 0.92, 4.58 1.83, 6.07 2.43 M0 0 C1.8 0.72, 3.6 1.44, 6.07 2.43 M6.07 2.43 C6.06 5.29, 6.05 8.14, 6.04 9.91 M6.07 2.43 C6.06 5.15, 6.05 7.87, 6.04 9.91" stroke="#000000" stroke-width="2" fill="none"></path></g></g><mask></mask><g stroke-linecap="round"><g transform="translate(750.602920998258 710.5871088116846) rotate(0 3.004239609193064 -1.1683154035749794)"><path d="M0 0 C1.45 -0.56, 2.9 -1.13, 6.01 -2.34 M0 0 C1.83 -0.71, 3.66 -1.42, 6.01 -2.34" stroke="#000000" stroke-width="2" fill="none"></path></g></g><mask></mask><g stroke-linecap="round"><g transform="translate(770.0031538278508 717.2778951770188) rotate(0 -6.263092272848553 1.8307533330344086)" fill-rule="evenodd"><path d="M0 0 L-0.01 -2.17 L-6.36 -4.43 L-12.5 -2.19 L-12.54 5.29 L-6.3 8.1 L0.01 5.31 L0 0" stroke="none" stroke-width="0" fill="#ff00" fill-rule="evenodd"></path><path d="M0 0 C0 -0.8, 0 -1.61, -0.01 -2.17 M0 0 C0 -0.48, 0 -0.96, -0.01 -2.17 M-0.01 -2.17 C-2.32 -2.99, -4.64 -3.82, -6.36 -4.43 M-0.01 -2.17 C-2.27 -2.97, -4.54 -3.78, -6.36 -4.43 M-6.36 -4.43 C-8.16 -3.78, -9.96 -3.12, -12.5 -2.19 M-6.36 -4.43 C-8.74 -3.56, -11.12 -2.69, -12.5 -2.19 M-12.5 -2.19 C-12.51 -0.3, -12.52 1.58, -12.54 5.29 M-12.5 -2.19 C-12.51 -0.43, -12.52 1.33, -12.54 5.29 M-12.54 5.29 C-10.48 6.22, -8.43 7.14, -6.3 8.1 M-12.54 5.29 C-11.26 5.87, -9.98 6.44, -6.3 8.1 M-6.3 8.1 C-3.78 6.99, -1.26 5.88, 0.01 5.31 M-6.3 8.1 C-4.43 7.27, -2.57 6.45, 0.01 5.31 M0.01 5.31 C0.01 3.65, 0 1.99, 0 0 M0.01 5.31 C0.01 3.7, 0 2.08, 0 0 M0 0 C0 0, 0 0, 0 0 M0 0 C0 0, 0 0, 0 0" stroke="#000" stroke-width="2" fill="none"></path></g></g><mask></mask><g stroke-linecap="round"><g transform="translate(757.6881119891768 715.2066799456834) rotate(0 3.0353946716336395 4.95461338197947)"><path d="M0 0 C1.74 0.7, 3.49 1.4, 6.07 2.43 M0 0 C1.45 0.58, 2.9 1.16, 6.07 2.43 M6.07 2.43 C6.06 5.09, 6.05 7.74, 6.04 9.91 M6.07 2.43 C6.06 4.98, 6.05 7.52, 6.04 9.91" stroke="#000000" stroke-width="2" fill="none"></path></g></g><mask></mask><g stroke-linecap="round"><g transform="translate(763.740061555005 717.606528705458) rotate(0 3.004239609193064 -1.1683154035749794)"><path d="M0 0 C1.99 -0.77, 3.97 -1.55, 6.01 -2.34 M0 0 C1.21 -0.47, 2.42 -0.94, 6.01 -2.34" stroke="#000000" stroke-width="2" fill="none"></path></g></g><mask></mask><g stroke-linecap="round"><g transform="translate(782.6425536533097 709.4246269709047) rotate(0 -6.263092272848553 1.8307533330344086)" fill-rule="evenodd"><path d="M0 0 L-0.01 -2.17 L-6.36 -4.43 L-12.5 -2.19 L-12.54 5.29 L-6.3 8.1 L0.01 5.31 L0 0" stroke="none" stroke-width="0" fill="#ff00" fill-rule="evenodd"></path><path d="M0 0 C0 -0.7, 0 -1.4, -0.01 -2.17 M0 0 C0 -0.55, 0 -1.1, -0.01 -2.17 M-0.01 -2.17 C-2.49 -3.05, -4.98 -3.94, -6.36 -4.43 M-0.01 -2.17 C-1.28 -2.62, -2.56 -3.08, -6.36 -4.43 M-6.36 -4.43 C-8.64 -3.6, -10.92 -2.77, -12.5 -2.19 M-6.36 -4.43 C-8.23 -3.75, -10.09 -3.07, -12.5 -2.19 M-12.5 -2.19 C-12.51 -0.31, -12.52 1.56, -12.54 5.29 M-12.5 -2.19 C-12.51 0.67, -12.53 3.54, -12.54 5.29 M-12.54 5.29 C-10.18 6.35, -7.83 7.41, -6.3 8.1 M-12.54 5.29 C-10.2 6.34, -7.86 7.39, -6.3 8.1 M-6.3 8.1 C-4.7 7.39, -3.1 6.69, 0.01 5.31 M-6.3 8.1 C-4.78 7.43, -3.26 6.76, 0.01 5.31 M0.01 5.31 C0.01 3.57, 0 1.83, 0 0 M0.01 5.31 C0.01 3.88, 0.01 2.44, 0 0 M0 0 C0 0, 0 0, 0 0 M0 0 C0 0, 0 0, 0 0" stroke="#000" stroke-width="2" fill="none"></path></g></g><mask></mask><g stroke-linecap="round"><g transform="translate(770.327511814633 707.3534117395711) rotate(0 3.0353946716336395 4.95461338197947)"><path d="M0 0 C1.36 0.55, 2.72 1.09, 6.07 2.43 M0 0 C1.72 0.69, 3.45 1.38, 6.07 2.43 M6.07 2.43 C6.06 4.47, 6.06 6.52, 6.04 9.91 M6.07 2.43 C6.06 4.27, 6.06 6.1, 6.04 9.91" stroke="#000000" stroke-width="2" fill="none"></path></g></g><mask></mask><g stroke-linecap="round"><g transform="translate(776.379461380463 709.7532604993403) rotate(0 3.004239609193064 -1.1683154035749794)"><path d="M0 0 C2.3 -0.89, 4.59 -1.79, 6.01 -2.34 M0 0 C2.18 -0.85, 4.37 -1.7, 6.01 -2.34" stroke="#000000" stroke-width="2" fill="none"></path></g></g><mask></mask><g stroke-linecap="round"><g transform="translate(745.9026946769836 703.2853813842894) rotate(178.33979303936556 17.338548670725686 -8.18684442950007)"><path d="M0 0 C-0.62 -0.36, -2.66 -1.12, -3.74 -2.14 C-4.83 -3.16, -6.37 -4.65, -6.52 -6.13 C-6.66 -7.6, -5.97 -9.61, -4.61 -10.98 C-3.25 -12.36, -0.8 -13.5, 1.63 -14.37 C4.06 -15.24, 7.05 -15.79, 9.95 -16.2 C12.86 -16.6, 15.99 -16.86, 19.06 -16.78 C22.13 -16.7, 25.63 -16.28, 28.39 -15.71 C31.14 -15.15, 33.66 -14.36, 35.59 -13.41 C37.52 -12.46, 39.02 -11.32, 39.96 -10.04 C40.89 -8.76, 41.49 -7.11, 41.19 -5.74 C40.9 -4.38, 39.47 -2.89, 38.2 -1.86 C36.93 -0.84, 34.36 0.03, 33.59 0.41 M0 0 C-0.62 -0.36, -2.66 -1.12, -3.74 -2.14 C-4.83 -3.16, -6.37 -4.65, -6.52 -6.13 C-6.66 -7.6, -5.97 -9.61, -4.61 -10.98 C-3.25 -12.36, -0.8 -13.5, 1.63 -14.37 C4.06 -15.24, 7.05 -15.79, 9.95 -16.2 C12.86 -16.6, 15.99 -16.86, 19.06 -16.78 C22.13 -16.7, 25.63 -16.28, 28.39 -15.71 C31.14 -15.15, 33.66 -14.36, 35.59 -13.41 C37.52 -12.46, 39.02 -11.32, 39.96 -10.04 C40.89 -8.76, 41.49 -7.11, 41.19 -5.74 C40.9 -4.38, 39.47 -2.89, 38.2 -1.86 C36.93 -0.84, 34.36 0.03, 33.59 0.41" stroke="#000000" stroke-width="2" fill="none"></path></g></g><mask></mask><g transform="translate(723.0304870605469 734.5863901545335) rotate(0 39.50995635986328 12)"><text x="0" y="0" font-family="Virgil, Segoe UI Emoji" font-size="20px" fill="#000000" text-anchor="start" style="white-space: pre;" direction="ltr" dominant-baseline="text-before-edge">Fargate</text></g><g stroke-linecap="round"><g transform="translate(510.54042053222656 422.8687744140625) rotate(0 0 110)"><path d="M3.36 1.64 C-3.46 50.91, 1.47 100.14, -1.03 222.68 M-0.98 0.05 C-1.95 60.45, -3.51 118.58, 0.57 220.72" stroke="#1971c2" stroke-width="1" fill="none"></path></g></g><mask></mask><g stroke-linecap="round"><g transform="translate(232.54042053222656 646.8687744140625) rotate(0 283 1)"><path d="M0.88 -1.17 C132.32 -2.98, 261.75 -4.89, 564.92 1.58 M-0.27 -0.13 C216.81 -1.12, 431.58 0.12, 566.78 1.56" stroke="#1971c2" stroke-width="1" fill="none"></path></g></g><mask></mask><g stroke-linecap="round"><g transform="translate(511.08106981261926 88.8687744140625) rotate(0 -1.136686758386304 110.05991443873882)"><path d="M0 2.72 C0.03 65.99, -3.81 129.14, -5.61 219.21 M-1.39 -0.98 C-3.7 86.19, -4.07 173.46, -3.13 218.45" stroke="#2f9e44" stroke-width="1" fill="none"></path></g><g transform="translate(511.08106981261926 88.8687744140625) rotate(0 -1.136686758386304 110.05991443873882)"><path d="M-11.9 196.61 C-9.09 202.69, -8.33 208.62, -5.06 217.93 M-12.7 194.48 C-8.65 203.69, -4.87 213.01, -3.62 217.49" stroke="#2f9e44" stroke-width="1" fill="none"></path></g><g transform="translate(511.08106981261926 88.8687744140625) rotate(0 -1.136686758386304 110.05991443873882)"><path d="M5.2 196.45 C2.98 202.45, -1.31 208.43, -5.06 217.93 M4.4 194.32 C1.68 203.66, -1.31 213.04, -3.62 217.49" stroke="#2f9e44" stroke-width="1" fill="none"></path></g></g><mask></mask></svg>